<svg width="8" height="7" viewBox="0 0 8 7" fill="none" xmlns="http://www.w3.org/2000/svg">
<path d="M3.78217 1.15059C4.3724 1.1197 4.86885 1.29554 5.30045 1.68416C5.73198 2.07279 5.9579 2.54819 5.98884 3.13841C6.01586 3.65486 5.88482 4.09898 5.59131 4.49115L5.45624 4.65665C5.06761 5.08825 4.59221 5.31405 4.00199 5.34503C3.41176 5.37596 2.91536 5.20096 2.48375 4.81243L2.33114 4.662C2.04596 4.35407 1.87546 3.99549 1.81549 3.57422L1.7944 3.35823C1.76732 2.84167 1.89829 2.39675 2.19187 2.00452L2.32797 1.83994C2.71664 1.40829 3.19185 1.18153 3.78217 1.15059Z" fill="#3DCFB6" stroke="#3DCFB6"/>
</svg>
