<svg width="1440" height="140" viewBox="0 0 1440 140" fill="none" xmlns="http://www.w3.org/2000/svg">
<g clip-path="url(#clip0_3001_2710)">
<rect width="1480" height="62" transform="translate(-21 77.7695) rotate(-3)" fill="white" fill-opacity="0.12"/>
<g clip-path="url(#clip1_3001_2710)">
<mask id="mask0_3001_2710" style="mask-type:alpha" maskUnits="userSpaceOnUse" x="12" y="102" width="9" height="10">
<rect x="12.8947" y="103.531" width="7" height="7" transform="rotate(-3 12.8947 103.531)" fill="#D9D9D9" stroke="#3DCFB6"/>
</mask>
<g mask="url(#mask0_3001_2710)">
<path d="M16.4523 104.743C17.0425 104.712 17.539 104.888 17.9706 105.276C18.4021 105.665 18.628 106.14 18.6589 106.731C18.686 107.247 18.5549 107.691 18.2614 108.083L18.1263 108.249C17.7377 108.681 17.2623 108.906 16.6721 108.937C16.0819 108.968 15.5855 108.793 15.1539 108.405L15.0012 108.254C14.7161 107.946 14.5456 107.588 14.4856 107.167L14.4645 106.951C14.4374 106.434 14.5684 105.989 14.862 105.597L14.9981 105.432C15.3867 105.001 15.862 104.774 16.4523 104.743Z" fill="#3DCFB6" stroke="#3DCFB6"/>
</g>
<path d="M77.8974 114.644L83.7482 94.2139L86.784 94.0548L94.5785 113.77L91.9581 113.907L89.9948 108.851L82.0058 109.27L80.5178 114.507L77.8974 114.644ZM82.5427 107.287L89.2535 106.935L85.3773 97.1727L82.5427 107.287ZM94.4733 98.4584L97.3174 98.3094L102.799 111.192L102.448 111.211L106.553 97.8253L109.397 97.6763L104.094 113.271L101.377 113.414L94.4733 98.4584ZM123.457 112.256L122.961 108.918L122.618 102.367C122.546 100.993 122.202 100.023 121.584 99.4569C120.967 98.8804 120.072 98.6229 118.9 98.6843C118.24 98.7189 117.643 98.8463 117.11 99.0665C116.587 99.2862 116.177 99.6068 115.879 100.028C115.59 100.439 115.463 100.958 115.496 101.586L112.715 101.732C112.657 100.624 112.882 99.7207 113.39 99.0211C113.898 98.3109 114.618 97.7819 115.55 97.4339C116.493 97.0748 117.577 96.8631 118.802 96.7989C119.973 96.7375 121.022 96.8801 121.948 97.2268C122.874 97.5735 123.616 98.1648 124.172 99.0008C124.728 99.8262 125.042 100.926 125.114 102.3L125.63 112.143L123.457 112.256ZM118.268 112.913C117.011 112.979 115.961 112.809 115.117 112.405C114.274 112.001 113.631 111.452 113.188 110.76C112.746 110.067 112.505 109.327 112.463 108.539C112.409 107.505 112.621 106.651 113.098 105.974C113.586 105.297 114.269 104.786 115.148 104.441C116.027 104.085 117.026 103.878 118.144 103.819C118.943 103.777 119.746 103.815 120.553 103.933C121.371 104.05 122.171 104.227 122.952 104.464L123.034 106.03C122.382 105.808 121.647 105.643 120.83 105.537C120.023 105.429 119.284 105.393 118.613 105.429C117.59 105.482 116.739 105.74 116.058 106.203C115.377 106.656 115.063 107.388 115.116 108.4C115.155 109.145 115.454 109.771 116.015 110.275C116.586 110.779 117.463 111 118.645 110.938C119.476 110.895 120.212 110.664 120.852 110.246C121.503 109.817 122.004 109.299 122.357 108.693C122.72 108.087 122.887 107.49 122.856 106.905L123.463 106.873C123.517 107.895 123.343 108.855 122.941 109.752C122.55 110.648 121.959 111.384 121.166 111.96C120.374 112.535 119.408 112.853 118.268 112.913ZM132.015 92.87C131.504 92.8968 131.091 92.7742 130.778 92.5022C130.464 92.2196 130.295 91.8386 130.27 91.3592C130.245 90.8906 130.375 90.5099 130.658 90.2173C130.942 89.9247 131.34 89.7651 131.851 89.7383C132.362 89.7115 132.774 89.8287 133.087 90.0901C133.4 90.3514 133.568 90.7164 133.593 91.1851C133.618 91.6644 133.489 92.061 133.207 92.3749C132.924 92.6782 132.526 92.8432 132.015 92.87ZM131.758 111.821L130.956 96.5144L133.449 96.3837L134.251 111.691L131.758 111.821ZM141.117 111.331L139.975 89.5368L142.467 89.4062L143.609 111.2L141.117 111.331ZM159.532 110.366L159.037 107.027L158.694 100.476C158.622 99.102 158.277 98.1321 157.66 97.5662C157.042 96.9898 156.148 96.7323 154.976 96.7937C154.315 96.8283 153.719 96.9557 153.185 97.1759C152.663 97.3955 152.252 97.7161 151.954 98.1377C151.666 98.548 151.538 99.0674 151.571 99.6958L148.791 99.8415C148.733 98.7337 148.958 97.83 149.466 97.1305C149.973 96.4203 150.693 95.8912 151.626 95.5433C152.568 95.1841 153.652 94.9725 154.877 94.9083C156.049 94.8468 157.098 94.9895 158.024 95.3362C158.95 95.6828 159.691 96.2742 160.248 97.1102C160.804 97.9356 161.118 99.0353 161.19 100.409L161.705 110.252L159.532 110.366ZM154.344 111.022C153.087 111.088 152.036 110.919 151.193 110.514C150.349 110.11 149.706 109.562 149.264 108.869C148.822 108.177 148.58 107.436 148.539 106.648C148.485 105.615 148.696 104.76 149.173 104.083C149.661 103.406 150.345 102.895 151.224 102.55C152.103 102.194 153.101 101.987 154.219 101.928C155.018 101.886 155.821 101.924 156.629 102.042C157.447 102.16 158.246 102.337 159.028 102.574L159.11 104.139C158.457 103.917 157.722 103.753 156.905 103.646C156.098 103.539 155.359 103.503 154.688 103.538C153.666 103.592 152.814 103.85 152.133 104.313C151.452 104.765 151.138 105.497 151.191 106.509C151.23 107.255 151.53 107.88 152.09 108.385C152.662 108.889 153.538 109.11 154.721 109.048C155.552 109.004 156.287 108.773 156.928 108.355C157.578 107.926 158.08 107.408 158.432 106.802C158.796 106.196 158.962 105.6 158.931 105.014L159.539 104.982C159.592 106.005 159.418 106.964 159.017 107.861C158.626 108.758 158.034 109.494 157.242 110.069C156.449 110.645 155.483 110.963 154.344 111.022ZM174.693 109.956C173.67 110.009 172.729 109.792 171.871 109.303C171.023 108.813 170.327 108.07 169.783 107.073C169.25 106.065 168.944 104.82 168.866 103.34L169.825 103.289C169.877 104.28 170.124 105.116 170.565 105.798C171.017 106.469 171.577 106.968 172.246 107.296C172.915 107.624 173.606 107.77 174.32 107.732C175.14 107.689 175.879 107.416 176.536 106.911C177.193 106.407 177.701 105.707 178.06 104.813C178.43 103.917 178.583 102.862 178.519 101.648C178.457 100.455 178.201 99.4431 177.751 98.6122C177.301 97.7706 176.718 97.1389 176.002 96.7172C175.295 96.2842 174.521 96.0898 173.68 96.1339C172.956 96.1718 172.278 96.3889 171.647 96.7851C171.027 97.1702 170.532 97.7195 170.163 98.4331C169.806 99.1461 169.653 100.009 169.706 101.021L168.748 101.071C168.672 99.6221 168.841 98.3742 169.256 97.327C169.682 96.2793 170.301 95.4618 171.114 94.8744C171.928 94.287 172.893 93.9641 174.012 93.9054C175.215 93.8424 176.335 94.1095 177.37 94.7068C178.416 95.2929 179.273 96.1665 179.943 97.3277C180.613 98.4889 180.99 99.8844 181.076 101.514C181.162 103.155 180.927 104.598 180.373 105.845C179.819 107.081 179.042 108.062 178.044 108.787C177.045 109.501 175.928 109.891 174.693 109.956ZM167.674 109.939L166.532 88.145L169.025 88.0144L169.979 106.229L169.432 109.847L167.674 109.939ZM186.617 108.946L185.475 87.1523L187.967 87.0216L189.11 108.816L186.617 108.946ZM200.898 108.582C199.577 108.652 198.377 108.378 197.298 107.762C196.229 107.134 195.36 106.234 194.689 105.063C194.03 103.89 193.659 102.521 193.577 100.955C193.489 99.2828 193.712 97.8291 194.246 96.5942C194.779 95.3592 195.546 94.3951 196.545 93.7018C197.555 92.9974 198.726 92.6102 200.057 92.5404C201.219 92.4796 202.221 92.662 203.066 93.0877C203.911 93.5134 204.605 94.1126 205.147 94.8853C205.69 95.6579 206.083 96.5452 206.328 97.5471C206.583 98.5378 206.696 99.5733 206.667 100.654L195.61 101.233L195.53 99.6992L204.941 99.206L204.231 99.7239C204.23 99.0937 204.16 98.4672 204.021 97.8443C203.892 97.2209 203.675 96.6554 203.371 96.148C203.066 95.6299 202.655 95.2242 202.137 94.9309C201.62 94.6375 200.973 94.5113 200.195 94.552C199.215 94.6034 198.408 94.8967 197.774 95.4319C197.14 95.9672 196.679 96.6536 196.392 97.4911C196.104 98.3179 195.985 99.2054 196.034 100.153L196.088 101.176C196.144 102.241 196.354 103.186 196.717 104.011C197.092 104.835 197.616 105.475 198.292 105.931C198.967 106.387 199.8 106.589 200.791 106.537C201.782 106.485 202.584 106.203 203.198 105.69C203.812 105.177 204.164 104.449 204.253 103.504L206.841 103.368C206.735 104.389 206.418 105.281 205.892 106.046C205.366 106.8 204.676 107.396 203.823 107.836C202.97 108.276 201.995 108.525 200.898 108.582ZM220.403 107.176L219.478 89.5359C219.425 88.524 219.574 87.6884 219.924 87.0292C220.284 86.3588 220.78 85.8521 221.414 85.5091C222.058 85.1656 222.785 84.9726 223.595 84.9302C224.031 84.9073 224.475 84.9161 224.926 84.9565C225.387 84.9964 225.845 85.0686 226.299 85.173L225.924 87.1794C225.597 87.0683 225.273 86.9892 224.95 86.942C224.638 86.8943 224.338 86.878 224.05 86.893C223.709 86.9109 223.372 86.9927 223.038 87.1384C222.703 87.284 222.434 87.5385 222.228 87.9018C222.023 88.265 221.938 88.7768 221.972 89.4373L222.895 107.045L220.403 107.176ZM217.2 93.7569L217.109 92.0313L225.258 91.6043L225.349 93.3299L217.2 93.7569ZM236.074 106.739C234.7 106.811 233.459 106.572 232.351 106.021C231.254 105.469 230.366 104.613 229.685 103.453C229.005 102.292 228.619 100.838 228.527 99.0914C228.435 97.3338 228.667 95.8477 229.223 94.6329C229.778 93.4075 230.573 92.4633 231.606 91.8003C232.65 91.1368 233.859 90.769 235.233 90.697C236.597 90.6255 237.827 90.8654 238.924 91.4168C240.032 91.9676 240.92 92.8236 241.59 93.9848C242.27 95.1348 242.656 96.5886 242.748 98.3462C242.839 100.093 242.608 101.579 242.052 102.805C241.508 104.03 240.713 104.974 239.669 105.637C238.636 106.3 237.437 106.667 236.074 106.739ZM235.896 104.569C236.887 104.517 237.716 104.239 238.384 103.734C239.051 103.218 239.538 102.515 239.843 101.623C240.16 100.73 240.286 99.6821 240.223 98.4785C240.128 96.657 239.675 95.2441 238.864 94.2398C238.052 93.2249 236.901 92.7565 235.409 92.8347C234.408 92.8871 233.574 93.1712 232.907 93.6868C232.249 94.1912 231.763 94.895 231.447 95.7981C231.141 96.69 231.02 97.7431 231.084 98.9574C231.178 100.758 231.631 102.165 232.443 103.18C233.264 104.184 234.416 104.647 235.896 104.569ZM248.001 105.729L247.199 90.4223L249.692 90.2917L250.494 105.599L248.001 105.729ZM249.365 98.7364C249.264 96.7977 249.366 95.1795 249.672 93.8817C249.977 92.5732 250.47 91.5861 251.151 90.9202C251.842 90.2431 252.704 89.8775 253.737 89.8234C254.078 89.8055 254.388 89.8159 254.668 89.8547C254.958 89.8822 255.249 89.9364 255.541 90.0172L255.511 92.4862C255.207 92.4059 254.878 92.3431 254.523 92.2976C254.168 92.2414 253.852 92.2206 253.575 92.2351C252.669 92.2826 251.953 92.5818 251.427 93.1328C250.9 93.6731 250.533 94.4187 250.326 95.3694C250.131 96.3197 250.066 97.4286 250.132 98.6962L249.365 98.7364ZM267.131 104.727L266.329 89.4198L268.822 89.2891L269.624 104.596L267.131 104.727ZM268.495 97.7338C268.394 95.7951 268.496 94.1769 268.802 92.8791C269.107 91.5707 269.6 90.5835 270.281 89.9176C270.972 89.2406 271.834 88.8749 272.867 88.8208C273.208 88.8029 273.518 88.8134 273.798 88.8521C274.088 88.8797 274.379 88.9338 274.671 89.0146L274.641 91.4836C274.337 91.4034 274.008 91.3405 273.653 91.295C273.298 91.2389 272.982 91.2181 272.705 91.2326C271.799 91.28 271.083 91.5792 270.557 92.1302C270.03 92.6706 269.663 93.4161 269.456 94.3669C269.261 95.3171 269.196 96.426 269.262 97.6936L268.495 97.7338ZM284.003 104.227C282.682 104.296 281.482 104.023 280.403 103.406C279.334 102.779 278.464 101.879 277.794 100.707C277.135 99.5348 276.764 98.1657 276.682 96.5998C276.594 94.9274 276.817 93.4738 277.35 92.2388C277.884 91.0039 278.65 90.0398 279.65 89.3465C280.66 88.642 281.831 88.2549 283.162 88.1851C284.323 88.1243 285.326 88.3067 286.171 88.7324C287.016 89.1581 287.709 89.7573 288.252 90.53C288.794 91.3026 289.188 92.1899 289.433 93.1918C289.688 94.1825 289.801 95.218 289.772 96.2983L278.715 96.8778L278.635 95.3439L288.046 94.8507L287.336 95.3685C287.335 94.7384 287.265 94.1119 287.125 93.489C286.996 92.8655 286.78 92.3001 286.476 91.7926C286.171 91.2746 285.76 90.8689 285.242 90.5755C284.725 90.2822 284.077 90.1559 283.3 90.1967C282.32 90.248 281.513 90.5413 280.878 91.0766C280.244 91.6119 279.783 92.2982 279.496 93.1358C279.208 93.9626 279.089 94.8501 279.139 95.7981L279.193 96.8207C279.249 97.8859 279.458 98.8309 279.822 99.6556C280.196 100.48 280.721 101.12 281.397 101.576C282.072 102.032 282.905 102.234 283.896 102.182C284.886 102.13 285.689 101.848 286.303 101.335C286.917 100.822 287.268 100.093 287.358 99.1486L289.946 99.0129C289.839 100.033 289.523 100.926 288.997 101.69C288.47 102.444 287.781 103.041 286.928 103.481C286.075 103.921 285.1 104.17 284.003 104.227ZM316.568 102.136L316.097 93.1562C316.021 91.6969 315.611 90.6075 314.868 89.8881C314.136 89.1574 313.178 88.8231 311.996 88.885C310.611 88.9576 309.579 89.5511 308.901 90.6655C308.222 91.7692 307.931 93.2637 308.03 95.1492L306.88 95.2095C306.808 93.8353 306.878 92.6247 307.09 91.5775C307.313 90.5297 307.667 89.6513 308.154 88.9422C308.639 88.2225 309.246 87.6726 309.974 87.2927C310.702 86.9127 311.539 86.6979 312.487 86.6482C313.691 86.5852 314.733 86.8029 315.614 87.3015C316.505 87.7889 317.205 88.5212 317.716 89.4985C318.226 90.4758 318.518 91.6515 318.59 93.0256L319.06 102.005L316.568 102.136ZM295.093 103.261L294.293 87.9863L296.434 87.8741L296.882 90.9268C297.303 89.7939 297.93 88.9066 298.761 88.2648C299.603 87.6225 300.632 87.2696 301.846 87.2059C303.05 87.1428 304.092 87.3606 304.973 87.8592C305.863 88.3466 306.564 89.0789 307.074 90.0562C307.585 91.0335 307.876 92.2092 307.948 93.5833L308.419 102.563L305.958 102.692L305.488 93.7123C305.411 92.2529 305.002 91.1635 304.259 90.4441C303.526 89.7134 302.558 89.3796 301.354 89.4427C300.438 89.4907 299.658 89.7826 299.013 90.3185C298.368 90.8543 297.889 91.6004 297.576 92.5567C297.263 93.5024 297.14 94.6197 297.207 95.9086L297.586 103.131L295.093 103.261ZM330.538 101.788C329.164 101.86 327.923 101.621 326.815 101.07C325.718 100.519 324.83 99.6628 324.149 98.5021C323.469 97.3415 323.083 95.8877 322.991 94.1408C322.899 92.3832 323.131 90.897 323.687 89.6823C324.242 88.4568 325.037 87.5126 326.07 86.8497C327.114 86.1861 328.323 85.8183 329.697 85.7463C331.061 85.6749 332.291 85.9148 333.388 86.4661C334.496 87.0169 335.384 87.8729 336.054 89.0341C336.734 90.1841 337.12 91.6379 337.212 93.3955C337.304 95.1424 337.072 96.6286 336.516 97.854C335.972 99.0789 335.177 100.023 334.133 100.687C333.1 101.35 331.902 101.717 330.538 101.788ZM330.36 99.6186C331.351 99.5667 332.18 99.2883 332.848 98.7833C333.515 98.2677 334.002 97.5639 334.307 96.672C334.624 95.7796 334.751 94.7315 334.687 93.5278C334.592 91.7063 334.139 90.2934 333.328 89.2892C332.516 88.2742 331.365 87.8059 329.873 87.884C328.872 87.9365 328.038 88.2205 327.371 88.7362C326.713 89.2406 326.227 89.9444 325.911 90.8475C325.605 91.7393 325.484 92.7925 325.548 94.0068C325.642 95.807 326.095 97.2145 326.907 98.2295C327.728 99.2332 328.88 99.6962 330.36 99.6186ZM347.183 100.916C346.352 100.96 345.598 100.839 344.921 100.554C344.244 100.269 343.697 99.8169 343.28 99.1979C342.863 98.5789 342.629 97.79 342.579 96.8313L341.762 81.2367L344.222 81.1078L345.036 96.6385C345.119 98.215 345.895 98.9647 347.365 98.8876C347.802 98.8648 348.22 98.7948 348.62 98.6777C349.03 98.5601 349.486 98.392 349.988 98.1734L350.433 99.9446C349.902 100.207 349.369 100.428 348.833 100.605C348.308 100.782 347.758 100.886 347.183 100.916ZM339.614 87.3415L339.524 85.6158L349.271 85.105L349.361 86.8307L339.614 87.3415ZM359.805 100.254C358.484 100.324 357.284 100.05 356.205 99.4337C355.136 98.8062 354.267 97.9064 353.596 96.7346C352.937 95.5622 352.566 94.193 352.484 92.6272C352.396 90.9548 352.619 89.5012 353.153 88.2662C353.686 87.0313 354.453 86.0672 355.452 85.3739C356.462 84.6694 357.633 84.2823 358.964 84.2125C360.125 84.1516 361.128 84.3341 361.973 84.7598C362.818 85.1855 363.512 85.7847 364.054 86.5573C364.597 87.33 364.99 88.2173 365.235 89.2192C365.49 90.2099 365.603 91.2454 365.574 92.3257L354.517 92.9051L354.437 91.3712L363.848 90.878L363.138 91.3959C363.137 90.7658 363.067 90.1392 362.927 89.5163C362.799 88.8929 362.582 88.3275 362.278 87.82C361.973 87.3019 361.562 86.8962 361.044 86.6029C360.527 86.3096 359.879 86.1833 359.102 86.224C358.122 86.2754 357.315 86.5687 356.681 87.104C356.046 87.6392 355.586 88.3256 355.298 89.1631C355.011 89.99 354.892 90.8774 354.941 91.8255L354.995 92.8481C355.051 93.9133 355.26 94.8583 355.624 95.683C355.998 96.5072 356.523 97.1473 357.199 97.6032C357.874 98.0592 358.707 98.2612 359.698 98.2093C360.689 98.1574 361.491 97.875 362.105 97.3621C362.719 96.8493 363.071 96.1206 363.16 95.1759L365.748 95.0403C365.642 96.0606 365.325 96.953 364.799 97.7176C364.273 98.4715 363.583 99.0685 362.73 99.5084C361.877 99.9483 360.902 100.197 359.805 100.254ZM375.026 83.7553L377.614 83.6196L382.181 96.1658L381.862 96.1825L385.035 83.9677L387.112 83.8589L391.514 95.7087L391.226 95.7238L394.455 82.737L396.948 82.6064L392.731 98.1444L390.302 98.2716L386.004 87.1854L386.388 87.1653L383.304 98.6384L380.875 98.7657L375.026 83.7553ZM407.183 97.7715C405.809 97.8435 404.568 97.6041 403.46 97.0534C402.363 96.502 401.474 95.646 400.794 94.4854C400.114 93.3247 399.728 91.8709 399.636 90.124C399.544 88.3664 399.776 86.8802 400.332 85.6655C400.887 84.4401 401.682 83.4959 402.715 82.8329C403.759 82.1693 404.968 81.8015 406.342 81.7295C407.706 81.6581 408.936 81.898 410.033 82.4494C411.141 83.0001 412.029 83.8561 412.699 85.0173C413.379 86.1673 413.765 87.6211 413.857 89.3787C413.948 91.1257 413.716 92.6118 413.161 93.8372C412.617 95.0621 411.822 96.0063 410.778 96.6698C409.745 97.3328 408.546 97.7001 407.183 97.7715ZM407.005 95.6018C407.996 95.5499 408.825 95.2715 409.493 94.7665C410.16 94.2509 410.647 93.5471 410.952 92.6552C411.269 91.7628 411.395 90.7147 411.332 89.511C411.237 87.6895 410.784 86.2766 409.973 85.2724C409.161 84.2575 408.01 83.7891 406.518 83.8672C405.517 83.9197 404.683 84.2038 404.015 84.7194C403.358 85.2238 402.872 85.9276 402.556 86.8307C402.25 87.7226 402.129 88.7757 402.193 89.99C402.287 91.7902 402.74 93.1978 403.552 94.2127C404.373 95.2164 405.524 95.6794 407.005 95.6018ZM419.11 96.7619L418.308 81.4549L420.801 81.3243L421.603 96.6313L419.11 96.7619ZM420.474 89.7689C420.373 87.8303 420.475 86.212 420.781 84.9142C421.086 83.6058 421.579 82.6186 422.26 81.9528C422.95 81.2757 423.813 80.9101 424.846 80.8559C425.187 80.8381 425.497 80.8485 425.777 80.8872C426.067 80.9148 426.358 80.9689 426.65 81.0497L426.62 83.5187C426.316 83.4385 425.987 83.3756 425.632 83.3301C425.277 83.274 424.961 83.2532 424.684 83.2677C423.778 83.3152 423.062 83.6144 422.536 84.1653C422.009 84.7057 421.642 85.4512 421.435 86.402C421.239 87.3522 421.175 88.4611 421.241 89.7287L420.474 89.7689ZM430.657 96.1568L429.515 74.3627L432.007 74.232L433.15 96.0261L430.657 96.1568ZM432.307 87.2902L439.763 80.3625L443.246 80.18L432.446 89.9426L432.307 87.2902ZM441.33 95.5974L433.571 86.3268L436.072 85.7471L444.398 95.4366L441.33 95.5974Z" fill="#3DCFB6"/>
<mask id="mask1_3001_2710" style="mask-type:alpha" maskUnits="userSpaceOnUse" x="500" y="77" width="10" height="9">
<rect x="501.225" y="77.9387" width="7" height="7" transform="rotate(-3 501.225 77.9387)" fill="#D9D9D9" stroke="#3DCFB6"/>
</mask>
<g mask="url(#mask1_3001_2710)">
<path d="M504.782 79.1506C505.372 79.1197 505.869 79.2955 506.3 79.6842C506.732 80.0728 506.958 80.5482 506.989 81.1384C507.016 81.6549 506.885 82.099 506.591 82.4911L506.456 82.6566C506.068 83.0883 505.592 83.314 505.002 83.345C504.412 83.376 503.915 83.201 503.484 82.8124L503.331 82.662C503.046 82.3541 502.875 81.9955 502.815 81.5742L502.794 81.3582C502.767 80.8417 502.898 80.3967 503.192 80.0045L503.328 79.8399C503.717 79.4083 504.192 79.1815 504.782 79.1506Z" fill="#3DCFB6" stroke="#3DCFB6"/>
</g>
<path d="M568.624 88.9262L567.572 68.8578L579.779 68.218L579.892 70.3591L570.177 70.8682L570.527 77.547L579.571 77.0731L579.683 79.2141L570.639 79.6881L571.117 88.7956L568.624 88.9262ZM585.382 88.0479L584.58 72.741L587.073 72.6103L587.875 87.9173L585.382 88.0479ZM586.746 81.055C586.644 79.1163 586.747 77.4981 587.052 76.2003C587.358 74.8919 587.851 73.9047 588.531 73.2388C589.222 72.5617 590.084 72.1961 591.118 72.142C591.458 72.1241 591.769 72.1346 592.049 72.1733C592.338 72.2008 592.63 72.255 592.922 72.3358L592.891 74.8048C592.588 74.7246 592.259 74.6617 591.904 74.6162C591.549 74.5601 591.233 74.5392 590.956 74.5538C590.05 74.6012 589.334 74.9004 588.808 75.4514C588.281 75.9917 587.914 76.7373 587.707 77.6881C587.511 78.6383 587.447 79.7472 587.513 81.0148L586.746 81.055ZM602.477 87.5366C601.103 87.6086 599.862 87.3692 598.755 86.8184C597.658 86.2671 596.769 85.4111 596.089 84.2504C595.408 83.0898 595.022 81.636 594.931 79.889C594.839 78.1314 595.071 76.6453 595.626 75.4305C596.182 74.2051 596.976 73.2609 598.009 72.5979C599.053 71.9344 600.263 71.5666 601.637 71.4946C603 71.4231 604.23 71.6631 605.327 72.2144C606.435 72.7652 607.324 73.6212 607.993 74.7824C608.673 75.9324 609.059 77.3862 609.151 79.1438C609.243 80.8907 609.011 82.3769 608.456 83.6023C607.911 84.8271 607.117 85.7713 606.073 86.4349C605.039 87.0979 603.841 87.4651 602.477 87.5366ZM602.3 85.3669C603.29 85.315 604.119 85.0365 604.787 84.5315C605.455 84.0159 605.941 83.3122 606.247 82.4203C606.563 81.5278 606.69 80.4798 606.627 79.2761C606.531 77.4546 606.078 76.0417 605.267 75.0374C604.455 74.0225 603.304 73.5541 601.813 73.6323C600.811 73.6848 599.977 73.9688 599.31 74.4844C598.653 74.9889 598.166 75.6926 597.85 76.5957C597.545 77.4876 597.424 78.5407 597.487 79.7551C597.582 81.5552 598.035 82.9628 598.846 83.9777C599.668 84.9814 600.819 85.4445 602.3 85.3669ZM625.27 85.9575L624.799 76.9778C624.723 75.5185 624.313 74.4291 623.571 73.7097C622.838 72.979 621.87 72.6452 620.666 72.7083C619.75 72.7563 618.97 73.0482 618.325 73.584C617.68 74.1199 617.201 74.8659 616.888 75.8223C616.574 76.768 616.451 77.8853 616.519 79.1742L615.56 79.2245C615.467 77.4456 615.622 75.9154 616.025 74.6339C616.427 73.3524 617.059 72.3579 617.919 71.6506C618.789 70.9321 619.869 70.5391 621.158 70.4715C622.362 70.4084 623.404 70.6262 624.284 71.1248C625.175 71.6122 625.876 72.3445 626.386 73.3218C626.897 74.2991 627.188 75.4748 627.26 76.8489L627.731 85.8286L625.27 85.9575ZM614.405 86.5269L613.604 71.2519L615.745 71.1397L616.281 74.6364L616.897 86.3963L614.405 86.5269ZM638.409 85.6535C637.578 85.697 636.824 85.5763 636.146 85.2914C635.469 85.0064 634.922 84.5544 634.505 83.9354C634.088 83.3164 633.855 82.5275 633.804 81.5688L632.987 65.9742L635.448 65.8453L636.262 81.376C636.344 82.9525 637.121 83.7022 638.591 83.6252C639.027 83.6023 639.446 83.5323 639.845 83.4152C640.256 83.2976 640.712 83.1295 641.213 82.911L641.658 84.6821C641.127 84.9449 640.594 85.1651 640.059 85.3427C639.534 85.5197 638.984 85.6233 638.409 85.6535ZM630.84 72.079L630.749 70.3534L640.496 69.8426L640.586 71.5682L630.84 72.079ZM651.03 84.992C649.71 85.0612 648.51 84.7876 647.431 84.1713C646.362 83.5437 645.492 82.644 644.822 81.4721C644.162 80.2997 643.791 78.9306 643.709 77.3647C643.622 75.6923 643.845 74.2387 644.378 73.0037C644.911 71.7688 645.678 70.8047 646.678 70.1114C647.688 69.4069 648.858 69.0198 650.19 68.95C651.351 68.8892 652.354 69.0716 653.199 69.4973C654.043 69.923 654.737 70.5222 655.279 71.2948C655.822 72.0675 656.216 72.9548 656.46 73.9567C656.715 74.9474 656.828 75.9829 656.799 77.0632L645.743 77.6427L645.662 76.1088L655.073 75.6156L654.363 76.1334C654.362 75.5033 654.292 74.8768 654.153 74.2539C654.024 73.6304 653.807 73.065 653.503 72.5575C653.198 72.0395 652.787 71.6338 652.27 71.3404C651.752 71.0471 651.105 70.9208 650.327 70.9616C649.347 71.0129 648.54 71.3062 647.906 71.8415C647.272 72.3768 646.811 73.0631 646.524 73.9007C646.236 74.7275 646.117 75.615 646.167 76.563L646.22 77.5856C646.276 78.6508 646.486 79.5958 646.849 80.4205C647.224 81.2448 647.749 81.8848 648.424 82.3408C649.1 82.7967 649.933 82.9987 650.923 82.9468C651.914 82.8949 652.716 82.6125 653.33 82.0997C653.944 81.5868 654.296 80.8581 654.385 79.9135L656.974 79.7778C656.867 80.7981 656.551 81.6906 656.025 82.4551C655.498 83.2091 654.808 83.806 653.955 84.2459C653.103 84.6858 652.128 84.9345 651.03 84.992ZM672.986 83.4568L672.515 74.4772C672.439 73.0178 672.029 71.9284 671.286 71.209C670.554 70.4783 669.586 70.1445 668.382 70.2076C667.466 70.2556 666.685 70.5475 666.041 71.0834C665.396 71.6192 664.917 72.3653 664.604 73.3216C664.29 74.2673 664.167 75.3846 664.235 76.6735L663.276 76.7238C663.183 74.9449 663.338 73.4147 663.74 72.1332C664.143 70.8517 664.775 69.8573 665.635 69.1499C666.505 68.4314 667.585 68.0384 668.874 67.9708C670.077 67.9077 671.119 68.1255 672 68.6241C672.891 69.1115 673.591 69.8438 674.102 70.8211C674.612 71.7984 674.904 72.9741 674.976 74.3482L675.446 83.3279L672.986 83.4568ZM662.121 84.0263L661.32 68.7512L663.461 68.639L663.997 72.1358L664.613 83.8956L662.121 84.0263ZM686.891 83.1126C685.656 83.1774 684.504 82.9066 683.436 82.3003C682.368 81.6834 681.493 80.7893 680.812 79.618C680.131 78.436 679.747 77.0248 679.661 75.3844C679.575 73.7547 679.805 72.3274 680.35 71.1025C680.894 69.8777 681.651 68.9194 682.618 68.2278C683.596 67.525 684.687 67.1421 685.891 67.079C687.009 67.0204 688.003 67.2407 688.873 67.7398C689.754 68.2384 690.456 68.9867 690.978 69.9847C691.5 70.9828 691.799 72.2061 691.875 73.6548L690.916 73.7051C690.863 72.6931 690.616 71.8516 690.175 71.1804C689.745 70.5087 689.201 70.0138 688.543 69.6958C687.885 69.3671 687.189 69.222 686.454 69.2605C685.623 69.3041 684.874 69.5783 684.206 70.0833C683.548 70.5771 683.034 71.2662 682.664 72.1508C682.304 73.0242 682.155 74.0574 682.217 75.2504C682.281 76.4648 682.538 77.4981 682.989 78.3503C683.45 79.202 684.034 79.8444 684.74 80.2773C685.457 80.7097 686.231 80.9042 687.062 80.8606C687.754 80.8243 688.41 80.6083 689.03 80.2127C689.661 79.8165 690.166 79.2613 690.545 78.5471C690.924 77.8223 691.087 76.9646 691.035 75.9739L691.994 75.9237C692.072 77.4043 691.892 78.6741 691.457 79.733C691.031 80.7808 690.417 81.5927 689.614 82.1688C688.821 82.7444 687.914 83.059 686.891 83.1126ZM691.792 82.4712L691.189 78.9139L690.235 60.6989L692.727 60.5683L693.87 82.3624L691.792 82.4712ZM706.881 61.5569L712.761 61.2487C714.785 61.1427 716.564 61.466 718.099 62.2187C719.633 62.9607 720.85 64.0612 721.749 65.5202C722.648 66.9791 723.151 68.7259 723.257 70.7604C723.363 72.7737 723.045 74.5528 722.303 76.0977C721.562 77.6426 720.467 78.8749 719.02 79.7946C717.572 80.7036 715.837 81.2111 713.813 81.3172L707.933 81.6253L706.881 61.5569ZM709.489 63.6312L710.311 79.3217L713.699 79.1442C715.211 79.0649 716.493 78.6559 717.544 77.9173C718.605 77.178 719.398 76.2019 719.922 74.9888C720.456 73.7645 720.683 72.4014 720.605 70.8994C720.526 69.3869 720.157 68.0603 719.499 66.9199C718.851 65.7682 717.961 64.8856 716.829 64.272C715.707 63.6472 714.389 63.3744 712.877 63.4537L709.489 63.6312ZM734.354 80.6252C733.033 80.6944 731.833 80.4209 730.754 79.8045C729.685 79.1769 728.815 78.2772 728.145 77.1053C727.485 75.9329 727.114 74.5638 727.032 72.9979C726.945 71.3256 727.168 69.8719 727.701 68.6369C728.235 67.402 729.001 66.4379 730.001 65.7446C731.011 65.0401 732.181 64.653 733.513 64.5832C734.674 64.5224 735.677 64.7048 736.522 65.1305C737.366 65.5562 738.06 66.1554 738.603 66.9281C739.145 67.7007 739.539 68.588 739.784 69.5899C740.038 70.5806 740.151 71.6161 740.123 72.6964L729.066 73.2759L728.985 71.742L738.396 71.2488L737.687 71.7666C737.686 71.1365 737.615 70.51 737.476 69.8871C737.347 69.2636 737.131 68.6982 736.826 68.1908C736.521 67.6727 736.11 67.267 735.593 66.9736C735.075 66.6803 734.428 66.554 733.65 66.5948C732.67 66.6461 731.863 66.9395 731.229 67.4747C730.595 68.01 730.134 68.6964 729.847 69.5339C729.559 70.3607 729.44 71.2482 729.49 72.1962L729.543 73.2188C729.599 74.284 729.809 75.229 730.173 76.0538C730.547 76.878 731.072 77.518 731.747 77.974C732.423 78.4299 733.256 78.6319 734.246 78.58C735.237 78.5281 736.039 78.2457 736.653 77.7329C737.267 77.2201 737.619 76.4913 737.708 75.5467L740.297 75.411C740.19 76.4313 739.874 77.3238 739.348 78.0884C738.821 78.8423 738.131 79.4392 737.279 79.8791C736.426 80.319 735.451 80.5677 734.354 80.6252ZM741.991 64.5234L744.835 64.3744L750.317 77.2572L749.965 77.2756L754.07 63.8904L756.914 63.7413L751.611 79.3362L748.895 79.4786L741.991 64.5234ZM766.84 78.9227C765.519 78.9919 764.319 78.7183 763.24 78.1019C762.171 77.4744 761.302 76.5746 760.632 75.4028C759.972 74.2304 759.601 72.8612 759.519 71.2954C759.431 69.623 759.654 68.1693 760.188 66.9344C760.721 65.6995 761.488 64.7353 762.488 64.0421C763.497 63.3376 764.668 62.9505 766 62.8807C767.161 62.8198 768.164 63.0023 769.008 63.428C769.853 63.8537 770.547 64.4528 771.089 65.2255C771.632 65.9982 772.025 66.8855 772.27 67.8874C772.525 68.878 772.638 69.9135 772.609 70.9939L761.552 71.5733L761.472 70.0394L770.883 69.5462L770.173 70.0641C770.172 69.4339 770.102 68.8074 769.963 68.1845C769.834 67.5611 769.617 66.9956 769.313 66.4882C769.008 65.9701 768.597 65.5644 768.08 65.2711C767.562 64.9778 766.915 64.8515 766.137 64.8922C765.157 64.9436 764.35 65.2369 763.716 65.7722C763.082 66.3074 762.621 66.9938 762.334 67.8313C762.046 68.6582 761.927 69.5456 761.976 70.4937L762.03 71.5163C762.086 72.5815 762.296 73.5264 762.659 74.3512C763.034 75.1754 763.559 75.8155 764.234 76.2714C764.909 76.7274 765.742 76.9294 766.733 76.8775C767.724 76.8255 768.526 76.5432 769.14 76.0303C769.754 75.5175 770.106 74.7888 770.195 73.8441L772.784 73.7085C772.677 74.7288 772.36 75.6212 771.834 76.3858C771.308 77.1397 770.618 77.7367 769.765 78.1766C768.912 78.6165 767.937 78.8652 766.84 78.9227ZM777.93 77.9569L776.788 56.1628L779.281 56.0322L780.423 77.8263L777.93 77.9569ZM792.435 77.5813C791.061 77.6533 789.82 77.4139 788.713 76.8631C787.616 76.3118 786.727 75.4558 786.047 74.2951C785.366 73.1345 784.98 71.6807 784.889 69.9338C784.797 68.1762 785.029 66.69 785.584 65.4752C786.14 64.2498 786.934 63.3056 787.967 62.6426C789.012 61.9791 790.221 61.6113 791.595 61.5393C792.958 61.4678 794.188 61.7078 795.285 62.2591C796.393 62.8099 797.282 63.6659 797.951 64.8271C798.631 65.9771 799.017 67.4309 799.109 69.1885C799.201 70.9354 798.969 72.4216 798.414 73.647C797.869 74.8719 797.075 75.8161 796.031 76.4796C794.997 77.1426 793.799 77.5098 792.435 77.5813ZM792.258 75.4116C793.248 75.3597 794.077 75.0812 794.745 74.5763C795.413 74.0606 795.899 73.3569 796.205 72.465C796.521 71.5725 796.648 70.5245 796.585 69.3208C796.489 67.4993 796.036 66.0864 795.225 65.0821C794.414 64.0672 793.262 63.5988 791.771 63.677C790.77 63.7295 789.935 64.0135 789.268 64.5292C788.611 65.0336 788.124 65.7373 787.808 66.6404C787.503 67.5323 787.382 68.5854 787.445 69.7998C787.54 71.6 787.993 73.0075 788.804 74.0224C789.626 75.0261 790.777 75.4892 792.258 75.4116ZM811.318 76.5917C810.199 76.6503 809.211 76.4458 808.353 75.978C807.506 75.5097 806.833 74.7973 806.335 73.8407C805.835 72.8735 805.549 71.6816 805.474 70.2648L806.529 70.2096C806.579 71.1576 806.818 71.9462 807.246 72.5753C807.674 73.2044 808.211 73.6729 808.857 73.9809C809.514 74.2776 810.199 74.4073 810.913 74.3698C811.68 74.3297 812.403 74.0728 813.083 73.5992C813.763 73.115 814.304 72.4297 814.706 71.5435C815.108 70.6572 815.276 69.5803 815.21 68.3127C815.146 67.0983 814.884 66.0706 814.423 65.2296C813.973 64.388 813.39 63.7563 812.674 63.3346C811.957 62.9128 811.178 62.724 810.337 62.7681C809.612 62.8061 808.94 63.0175 808.319 63.4026C807.698 63.7876 807.209 64.3313 806.85 65.0337C806.492 65.7254 806.338 66.5666 806.39 67.5572L805.335 67.6125C805.258 66.1318 805.438 64.878 805.875 63.8511C806.312 62.8134 806.938 62.0169 807.753 61.4615C808.567 60.9061 809.497 60.6011 810.541 60.5464C811.734 60.4838 812.864 60.7451 813.93 61.33C814.997 61.915 815.881 62.7873 816.583 63.9468C817.285 65.1063 817.679 66.517 817.766 68.1787C817.854 69.8617 817.605 71.3221 817.018 72.5598C816.442 73.797 815.649 74.7625 814.639 75.4563C813.628 76.1502 812.521 76.5286 811.318 76.5917ZM804.756 84.0813L803.562 61.2966L805.64 61.1878L806.243 64.7451L807.249 83.9507L804.756 84.0813ZM828.381 75.6975C827.06 75.7667 825.86 75.4931 824.781 74.8767C823.712 74.2492 822.842 73.3494 822.172 72.1776C821.513 71.0052 821.142 69.636 821.06 68.0702C820.972 66.3978 821.195 64.9441 821.728 63.7092C822.262 62.4742 823.028 61.5101 824.028 60.8169C825.038 60.1124 826.209 59.7253 827.54 59.6555C828.701 59.5946 829.704 59.777 830.549 60.2028C831.394 60.6285 832.087 61.2276 832.63 62.0003C833.172 62.773 833.566 63.6603 833.811 64.6622C834.066 65.6528 834.179 66.6883 834.15 67.7687L823.093 68.3481L823.013 66.8142L832.424 66.321L831.714 66.8389C831.713 66.2087 831.643 65.5822 831.503 64.9593C831.374 64.3359 831.158 63.7704 830.853 63.263C830.549 62.7449 830.137 62.3392 829.62 62.0459C829.103 61.7526 828.455 61.6263 827.678 61.667C826.698 61.7184 825.89 62.0117 825.256 62.547C824.622 63.0822 824.161 63.7686 823.874 64.6061C823.586 65.433 823.467 66.3204 823.517 67.2685L823.571 68.2911C823.626 69.3563 823.836 70.3012 824.2 71.126C824.574 71.9502 825.099 72.5903 825.775 73.0462C826.45 73.5022 827.283 73.7042 828.274 73.6523C829.264 73.6003 830.067 73.318 830.681 72.8051C831.295 72.2923 831.646 71.5636 831.736 70.6189L834.324 70.4833C834.217 71.5036 833.901 72.396 833.375 73.1606C832.848 73.9145 832.159 74.5114 831.306 74.9514C830.453 75.3913 829.478 75.64 828.381 75.6975ZM839.471 74.7317L838.669 59.4247L841.161 59.2941L841.964 74.6011L839.471 74.7317ZM840.835 67.7388C840.733 65.8001 840.835 64.1819 841.141 62.8841C841.446 61.5756 841.94 60.5885 842.62 59.9226C843.311 59.2455 844.173 58.8799 845.206 58.8258C845.547 58.8079 845.858 58.8183 846.137 58.8571C846.427 58.8846 846.718 58.9388 847.011 59.0196L846.98 61.4886C846.677 61.4083 846.348 61.3455 845.993 61.3C845.638 61.2438 845.321 61.223 845.044 61.2375C844.139 61.285 843.423 61.5842 842.896 62.1352C842.369 62.6755 842.003 63.4211 841.796 64.3718C841.6 65.3221 841.535 66.431 841.602 67.6986L840.835 67.7388Z" fill="#3DCFB6"/>
<mask id="mask2_3001_2710" style="mask-type:alpha" maskUnits="userSpaceOnUse" x="903" y="55" width="9" height="10">
<rect x="903.672" y="56.8472" width="7" height="7" transform="rotate(-3 903.672 56.8472)" fill="#D9D9D9" stroke="#3DCFB6"/>
</mask>
<g mask="url(#mask2_3001_2710)">
<path d="M907.23 58.059C907.82 58.0281 908.316 58.204 908.748 58.5926C909.18 58.9812 909.406 59.4566 909.436 60.0469C909.463 60.5633 909.332 61.0074 909.039 61.3996L908.904 61.5651C908.515 61.9967 908.04 62.2225 907.45 62.2535C906.859 62.2844 906.363 62.1094 905.931 61.7209L905.779 61.5705C905.494 61.2625 905.323 60.9039 905.263 60.4827L905.242 60.2667C905.215 59.7501 905.346 59.3052 905.639 58.913L905.776 58.7484C906.164 58.3167 906.639 58.09 907.23 58.059Z" fill="#3DCFB6" stroke="#3DCFB6"/>
</g>
<path d="M971.072 67.8349L970.02 47.7664L977.53 47.3729C979 47.2958 980.232 47.4769 981.227 47.9161C982.221 48.3446 982.979 48.9458 983.501 49.7196C984.021 50.4827 984.306 51.333 984.355 52.2704C984.415 53.4208 984.148 54.4388 983.554 55.3245C982.97 56.1989 982.052 56.8238 980.8 57.1992C981.627 57.284 982.362 57.5393 983.003 57.9649C983.655 58.3794 984.174 58.9076 984.56 59.5496C984.946 60.1809 985.158 60.8694 985.197 61.6151C985.233 62.2968 985.151 62.9687 984.951 63.6308C984.761 64.2923 984.413 64.8979 983.908 65.4478C983.403 65.9977 982.716 66.4502 981.848 66.8055C980.981 67.1607 979.891 67.3727 978.581 67.4413L971.072 67.8349ZM973.45 65.5313L978.435 65.27C979.959 65.1902 981.034 64.8134 981.661 64.1396C982.298 63.4654 982.591 62.6276 982.538 61.6263C982.485 60.6143 982.081 59.8237 981.325 59.2545C980.568 58.6747 979.486 58.4216 978.08 58.4953L973.095 58.7566L973.45 65.5313ZM972.625 49.7769L972.983 56.6155L977.904 56.3576C979.151 56.2923 980.125 55.9368 980.828 55.2911C981.542 54.6342 981.869 53.7465 981.81 52.628C981.756 51.5841 981.351 50.7882 980.596 50.2403C979.851 49.6919 978.845 49.4509 977.578 49.5173L972.625 49.7769ZM1000.38 66.299L999.883 62.9604L999.54 56.4093C999.468 55.0352 999.123 54.0653 998.506 53.4995C997.888 52.923 996.994 52.6655 995.822 52.7269C995.161 52.7615 994.565 52.8889 994.031 53.1091C993.509 53.3287 993.098 53.6493 992.8 54.0709C992.512 54.4812 992.384 55.0006 992.417 55.629L989.637 55.7747C989.579 54.6669 989.804 53.7632 990.312 53.0637C990.819 52.3535 991.539 51.8244 992.472 51.4765C993.414 51.1173 994.498 50.9057 995.723 50.8415C996.895 50.78 997.944 50.9227 998.87 51.2694C999.796 51.616 1000.54 52.2074 1001.09 53.0434C1001.65 53.8688 1001.96 54.9685 1002.04 56.3426L1002.55 66.1851L1000.38 66.299ZM995.19 66.9555C993.933 67.0213 992.882 66.8521 992.039 66.4477C991.195 66.0433 990.552 65.4948 990.11 64.8024C989.668 64.1099 989.426 63.3695 989.385 62.5813C989.331 61.548 989.542 60.6931 990.019 60.0165C990.507 59.3394 991.191 58.8283 992.07 58.4831C992.949 58.1273 993.947 57.9201 995.065 57.8615C995.864 57.8196 996.667 57.8576 997.475 57.9756C998.293 58.0929 999.092 58.27 999.874 58.5067L999.956 60.0726C999.303 59.8504 998.568 59.686 997.751 59.5793C996.944 59.472 996.205 59.436 995.534 59.4712C994.512 59.5247 993.66 59.783 992.979 60.2459C992.298 60.6982 991.984 61.4303 992.037 62.4423C992.076 63.1879 992.376 63.8131 992.936 64.3178C993.508 64.8219 994.384 65.043 995.567 64.981C996.398 64.9375 997.133 64.7067 997.774 64.2886C998.424 63.8593 998.926 63.3416 999.278 62.7357C999.642 62.1292 999.808 61.533 999.777 60.9471L1000.38 60.9153C1000.44 61.9379 1000.26 62.8976 999.863 63.7946C999.472 64.6909 998.88 65.4269 998.088 66.0025C997.295 66.5781 996.329 66.8957 995.19 66.9555ZM1014.04 65.9677C1012.56 66.0453 1011.31 65.9024 1010.3 65.5388C1009.28 65.1647 1008.5 64.6235 1007.95 63.9153C1007.4 63.1965 1007.09 62.3585 1007 61.4015L1009.4 61.2759C1009.5 62.2425 1009.93 62.9517 1010.68 63.4038C1011.44 63.8446 1012.45 64.0321 1013.71 63.9662C1014.37 63.9316 1014.97 63.7933 1015.51 63.5512C1016.06 63.3091 1016.48 62.993 1016.79 62.6029C1017.1 62.2128 1017.25 61.7834 1017.22 61.3147C1017.19 60.7181 1016.95 60.2609 1016.49 59.9429C1016.04 59.6249 1015.32 59.3633 1014.35 59.1578L1011.33 58.3549C1010.02 58.0177 1009 57.5157 1008.27 56.8489C1007.55 56.171 1007.17 55.3367 1007.12 54.346C1007.05 53.1104 1007.54 52.0913 1008.59 51.2887C1009.64 50.4861 1011.04 50.0385 1012.81 49.9458C1014.69 49.8476 1016.16 50.1549 1017.23 50.8676C1018.31 51.5804 1018.9 52.5109 1019 53.6591L1016.54 53.7881C1016.41 53.122 1016.04 52.6339 1015.44 52.3238C1014.83 52.0029 1013.99 51.8707 1012.92 51.9271C1011.88 51.9813 1011.09 52.258 1010.52 52.7574C1009.97 53.2456 1009.71 53.772 1009.74 54.3365C1009.8 55.3911 1010.74 56.1212 1012.58 56.527L1015.67 57.3905C1017 57.7159 1018.03 58.1801 1018.76 58.7829C1019.49 59.3852 1019.89 60.1817 1019.94 61.1723C1019.98 61.9393 1019.77 62.6767 1019.3 63.3847C1018.84 64.0927 1018.16 64.6837 1017.26 65.1578C1016.37 65.6319 1015.29 65.9018 1014.04 65.9677ZM1030.63 65.0979C1029.31 65.1671 1028.11 64.8935 1027.03 64.2771C1025.97 63.6496 1025.1 62.7498 1024.43 61.578C1023.77 60.4056 1023.4 59.0364 1023.31 57.4706C1023.23 55.7982 1023.45 54.3446 1023.98 53.1096C1024.52 51.8747 1025.28 50.9106 1026.28 50.2173C1027.29 49.5128 1028.46 49.1257 1029.79 49.0559C1030.95 48.995 1031.96 49.1775 1032.8 49.6032C1033.65 50.0289 1034.34 50.6281 1034.88 51.4007C1035.43 52.1734 1035.82 53.0607 1036.06 54.0626C1036.32 55.0533 1036.43 56.0888 1036.4 57.1691L1025.35 57.7485L1025.27 56.2146L1034.68 55.7214L1033.97 56.2393C1033.97 55.6092 1033.9 54.9826 1033.76 54.3597C1033.63 53.7363 1033.41 53.1709 1033.11 52.6634C1032.8 52.1453 1032.39 51.7396 1031.87 51.4463C1031.36 51.153 1030.71 51.0267 1029.93 51.0674C1028.95 51.1188 1028.14 51.4121 1027.51 51.9474C1026.88 52.4826 1026.42 53.169 1026.13 54.0065C1025.84 54.8334 1025.72 55.7208 1025.77 56.6689L1025.82 57.6915C1025.88 58.7567 1026.09 59.7017 1026.45 60.5264C1026.83 61.3506 1027.35 61.9907 1028.03 62.4466C1028.7 62.9026 1029.54 63.1046 1030.53 63.0527C1031.52 63.0008 1032.32 62.7184 1032.93 62.2055C1033.55 61.6927 1033.9 60.964 1033.99 60.0193L1036.58 59.8837C1036.47 60.904 1036.15 61.7964 1035.63 62.561C1035.1 63.315 1034.41 63.9119 1033.56 64.3518C1032.71 64.7917 1031.73 65.0404 1030.63 65.0979ZM1047.21 64.2292C1045.97 64.294 1044.82 64.0232 1043.75 63.4169C1042.69 62.8 1041.81 61.9059 1041.13 60.7346C1040.45 59.5526 1040.06 58.1415 1039.98 56.501C1039.89 54.8713 1040.12 53.444 1040.67 52.2191C1041.21 50.9943 1041.97 50.036 1042.94 49.3444C1043.91 48.6416 1045.01 48.2587 1046.21 48.1956C1047.33 48.137 1048.32 48.3573 1049.19 48.8564C1050.07 49.355 1050.77 50.1033 1051.3 51.1014C1051.82 52.0994 1052.12 53.3227 1052.19 54.7714L1051.23 54.8217C1051.18 53.8097 1050.93 52.9682 1050.49 52.297C1050.06 51.6253 1049.52 51.1304 1048.86 50.8124C1048.2 50.4837 1047.51 50.3386 1046.77 50.3771C1045.94 50.4207 1045.19 50.6949 1044.52 51.1999C1043.87 51.6937 1043.35 52.3829 1042.98 53.2675C1042.62 54.1408 1042.47 55.174 1042.54 56.3671C1042.6 57.5814 1042.86 58.6147 1043.31 59.4669C1043.77 60.3186 1044.35 60.961 1045.06 61.3939C1045.77 61.8263 1046.55 62.0208 1047.38 61.9772C1048.07 61.9409 1048.73 61.725 1049.35 61.3293C1049.98 60.9331 1050.48 60.3779 1050.86 59.6637C1051.24 58.9389 1051.41 58.0812 1051.35 57.0906L1052.31 57.0403C1052.39 58.5209 1052.21 59.7907 1051.77 60.8497C1051.35 61.8974 1050.73 62.7093 1049.93 63.2855C1049.14 63.861 1048.23 64.1756 1047.21 64.2292ZM1052.11 63.5878L1051.51 60.0305L1050.55 41.8155L1053.05 41.6849L1054.19 63.479L1052.11 63.5878ZM1068.67 43.7822C1068.16 43.809 1067.74 43.6864 1067.43 43.4144C1067.12 43.1318 1066.95 42.7508 1066.92 42.2715C1066.9 41.8028 1067.03 41.4221 1067.31 41.1296C1067.59 40.837 1067.99 40.6773 1068.5 40.6505C1069.01 40.6237 1069.43 40.741 1069.74 41.0023C1070.05 41.2636 1070.22 41.6286 1070.24 42.0973C1070.27 42.5766 1070.14 42.9732 1069.86 43.2871C1069.58 43.5904 1069.18 43.7554 1068.67 43.7822ZM1068.41 62.7336L1067.61 47.4266L1070.1 47.296L1070.9 62.603L1068.41 62.7336ZM1088.63 61.6737L1088.16 52.694C1088.09 51.2347 1087.68 50.1453 1086.93 49.4259C1086.2 48.6952 1085.23 48.3614 1084.03 48.4245C1083.11 48.4725 1082.33 48.7644 1081.69 49.3002C1081.04 49.8361 1080.57 50.5821 1080.25 51.5385C1079.94 52.4842 1079.82 53.6015 1079.88 54.8904L1078.92 54.9407C1078.83 53.1618 1078.99 51.6316 1079.39 50.3501C1079.79 49.0686 1080.42 48.0741 1081.28 47.3668C1082.15 46.6483 1083.23 46.2553 1084.52 46.1877C1085.73 46.1246 1086.77 46.3424 1087.65 46.841C1088.54 47.3284 1089.24 48.0607 1089.75 49.038C1090.26 50.0153 1090.55 51.191 1090.62 52.5651L1091.09 61.5448L1088.63 61.6737ZM1077.77 62.2431L1076.97 46.9681L1079.11 46.8559L1079.65 50.3526L1080.26 62.1125L1077.77 62.2431ZM1103.59 40.7665L1107.17 40.5789L1114.79 54.0862L1114.54 54.0996L1120.72 39.8688L1124.2 39.6863L1125.25 59.7548L1122.73 59.8871L1121.81 42.407L1122.26 42.3836L1115.69 57.7243L1114.03 57.8114L1105.93 43.3353L1106.22 43.3202L1107.13 60.7043L1104.64 60.835L1103.59 40.7665ZM1141.28 43.5657L1143.77 43.4351L1144.57 58.7421L1142.08 58.8727L1141.28 43.5657ZM1130.45 44.1334L1132.94 44.0028L1133.44 53.5257C1133.5 54.804 1133.86 55.7571 1134.52 56.3852C1135.18 57.0127 1136.09 57.296 1137.25 57.2351C1138.21 57.1849 1139.03 56.8857 1139.7 56.3376C1140.39 55.7889 1140.9 55.0571 1141.24 54.1422C1141.59 53.2161 1141.73 52.1726 1141.67 51.0115L1142.6 50.9629C1142.69 52.6779 1142.51 54.1557 1142.07 55.3962C1141.65 56.6363 1141 57.6049 1140.13 58.3021C1139.27 58.9881 1138.23 59.3629 1137.01 59.4266C1135.86 59.4869 1134.85 59.3266 1133.96 58.9457C1133.08 58.5649 1132.37 57.9556 1131.85 57.1179C1131.32 56.2695 1131.02 55.1796 1130.95 53.8481L1130.45 44.1334ZM1161.91 57.8336L1161.44 48.8539C1161.36 47.3946 1160.95 46.3052 1160.21 45.5857C1159.48 44.8551 1158.51 44.5213 1157.3 44.5843C1156.39 44.6324 1155.61 44.9243 1154.96 45.4601C1154.32 45.9959 1153.84 46.742 1153.53 47.6984C1153.21 48.6441 1153.09 49.7614 1153.16 51.0503L1152.2 51.1005C1152.11 49.3216 1152.26 47.7914 1152.66 46.5099C1153.07 45.2284 1153.7 44.234 1154.56 43.5267C1155.43 42.8081 1156.51 42.4151 1157.8 42.3476C1159 42.2845 1160.04 42.5022 1160.92 43.0008C1161.81 43.4882 1162.51 44.2205 1163.02 45.1978C1163.54 46.1751 1163.83 47.3508 1163.9 48.7249L1164.37 57.7046L1161.91 57.8336ZM1151.04 58.403L1150.24 43.1279L1152.38 43.0157L1152.92 46.5125L1153.54 58.2724L1151.04 58.403ZM1170.75 38.4325C1170.23 38.4593 1169.82 38.3367 1169.51 38.0647C1169.19 37.7821 1169.03 37.4011 1169 36.9218C1168.98 36.4531 1169.11 36.0724 1169.39 35.7798C1169.67 35.4873 1170.07 35.3276 1170.58 35.3008C1171.09 35.274 1171.5 35.3912 1171.82 35.6526C1172.13 35.9139 1172.3 36.2789 1172.32 36.7476C1172.35 37.2269 1172.22 37.6235 1171.94 37.9374C1171.65 38.2407 1171.26 38.4057 1170.75 38.4325ZM1170.49 57.3839L1169.69 42.0769L1172.18 41.9462L1172.98 57.2532L1170.49 57.3839ZM1185.24 56.9955C1184.01 57.0597 1182.85 56.7895 1181.75 56.1849C1180.66 55.5798 1179.76 54.6924 1179.05 53.5227C1178.33 52.3531 1177.93 50.9481 1177.85 49.3077C1177.76 47.6247 1178.01 46.1696 1178.6 44.9425C1179.18 43.7154 1179.99 42.76 1181.01 42.0763C1182.04 41.392 1183.17 41.0177 1184.4 40.9535C1185.26 40.9083 1186.04 41.001 1186.73 41.2316C1187.44 41.4509 1188.06 41.7762 1188.59 42.2075C1189.13 42.6387 1189.58 43.1386 1189.94 43.7072C1190.31 44.2645 1190.59 44.8586 1190.79 45.4893L1188.24 45.847C1187.93 44.9768 1187.44 44.3026 1186.79 43.8242C1186.14 43.3346 1185.37 43.1133 1184.48 43.1602C1183.72 43.1998 1183.02 43.4556 1182.37 43.9275C1181.73 44.3882 1181.23 45.0608 1180.86 45.9454C1180.49 46.8194 1180.34 47.8955 1180.4 49.1737C1180.47 50.3561 1180.71 51.3742 1181.13 52.2282C1181.55 53.0709 1182.11 53.7146 1182.8 54.1593C1183.48 54.6041 1184.25 54.8044 1185.09 54.7603C1186.27 54.6983 1187.15 54.3638 1187.73 53.7568C1188.31 53.1385 1188.58 52.3128 1188.53 51.2795L1191.08 51.1456C1191.14 52.2108 1190.94 53.1719 1190.48 54.029C1190.02 54.8861 1189.34 55.5786 1188.44 56.1065C1187.55 56.6339 1186.48 56.9302 1185.24 56.9955ZM1207.19 55.4605L1206.72 46.4808C1206.64 45.0214 1206.23 43.9321 1205.49 43.2126C1204.76 42.4819 1203.79 42.1482 1202.59 42.2112C1201.67 42.2592 1200.89 42.5512 1200.24 43.087C1199.6 43.6228 1199.12 44.3689 1198.81 45.3252C1198.49 46.271 1198.37 47.3883 1198.44 48.6772L1197.48 48.7274C1197.39 46.9485 1197.54 45.4183 1197.94 44.1368C1198.35 42.8553 1198.98 41.8609 1199.84 41.1536C1200.71 40.435 1201.79 40.042 1203.08 39.9744C1204.28 39.9114 1205.32 40.1291 1206.2 40.6277C1207.1 41.1151 1207.8 41.8474 1208.31 42.8247C1208.82 43.802 1209.11 44.9777 1209.18 46.3518L1209.65 55.3315L1207.19 55.4605ZM1196.32 56.0299L1195.18 34.2358L1197.68 34.1052L1198.82 55.8992L1196.32 56.0299Z" fill="#3DCFB6"/>
<mask id="mask3_3001_2710" style="mask-type:alpha" maskUnits="userSpaceOnUse" x="1267" y="36" width="10" height="10">
<rect x="1268.17" y="37.7446" width="7" height="7" transform="rotate(-3 1268.17 37.7446)" fill="#D9D9D9" stroke="#3DCFB6"/>
</mask>
<g mask="url(#mask3_3001_2710)">
<path d="M1271.73 38.9565C1272.32 38.9256 1272.82 39.1014 1273.25 39.4901C1273.68 39.8787 1273.91 40.3541 1273.94 40.9443C1273.96 41.4608 1273.83 41.9049 1273.54 42.2971L1273.4 42.4626C1273.01 42.8942 1272.54 43.12 1271.95 43.1509C1271.36 43.1819 1270.86 43.0069 1270.43 42.6183L1270.28 42.4679C1269.99 42.16 1269.82 41.8014 1269.76 41.3801L1269.74 41.1641C1269.71 40.6476 1269.85 40.2027 1270.14 39.8104L1270.28 39.6459C1270.66 39.2142 1271.14 38.9874 1271.73 38.9565Z" fill="#3DCFB6" stroke="#3DCFB6"/>
</g>
<path d="M1342.69 48.744C1341.02 48.8311 1339.52 48.5255 1338.17 47.8272C1336.82 47.129 1335.72 46.0327 1334.89 44.5384C1334.05 43.0335 1333.57 41.1253 1333.45 38.8138C1333.33 36.4704 1333.6 34.5119 1334.28 32.9384C1334.95 31.3542 1335.93 30.1496 1337.2 29.3246C1338.47 28.489 1339.93 28.0277 1341.6 27.9406C1343.26 27.8535 1344.76 28.1591 1346.11 28.8574C1347.46 29.5557 1348.56 30.6573 1349.4 32.1622C1350.23 33.6671 1350.71 35.5806 1350.83 37.9028C1350.96 40.2356 1350.68 42.1941 1350 43.7782C1349.33 45.3518 1348.35 46.551 1347.08 47.376C1345.81 48.2009 1344.35 48.657 1342.69 48.744ZM1342.57 46.4432C1344.45 46.3444 1345.9 45.5795 1346.91 44.1484C1347.94 42.7168 1348.38 40.6695 1348.24 38.0065C1348.11 35.3967 1347.45 33.4175 1346.28 32.069C1345.12 30.7092 1343.6 30.0787 1341.71 30.1775C1339.85 30.2752 1338.4 31.0615 1337.37 32.5362C1336.34 34.0105 1335.9 36.0578 1336.04 38.6782C1336.18 41.3305 1336.83 43.315 1338 44.6316C1339.18 45.937 1340.7 46.5409 1342.57 46.4432ZM1363.15 47.6714C1362.04 47.73 1361.05 47.5254 1360.19 47.0576C1359.34 46.5893 1358.67 45.8769 1358.17 44.9204C1357.67 43.9532 1357.38 42.7612 1357.31 41.3445L1358.37 41.2892C1358.41 42.2373 1358.65 43.0258 1359.08 43.6549C1359.51 44.2841 1360.05 44.7526 1360.69 45.0605C1361.35 45.3572 1362.04 45.4869 1362.75 45.4495C1363.52 45.4093 1364.24 45.1524 1364.92 44.6788C1365.6 44.1946 1366.14 43.5094 1366.54 42.6231C1366.94 41.7368 1367.11 40.6599 1367.05 39.3923C1366.98 38.178 1366.72 37.1503 1366.26 36.3092C1365.81 35.4676 1365.23 34.836 1364.51 34.4142C1363.79 33.9925 1363.01 33.8036 1362.17 33.8477C1361.45 33.8857 1360.78 34.0972 1360.16 34.4822C1359.53 34.8672 1359.05 35.4109 1358.69 36.1133C1358.33 36.805 1358.17 37.6462 1358.23 38.6369L1357.17 38.6921C1357.09 37.2115 1357.27 35.9577 1357.71 34.9307C1358.15 33.8931 1358.77 33.0966 1359.59 32.5412C1360.4 31.9858 1361.33 31.6807 1362.38 31.626C1363.57 31.5635 1364.7 31.8247 1365.77 32.4097C1366.83 32.9947 1367.72 33.8669 1368.42 35.0264C1369.12 36.186 1369.52 37.5966 1369.6 39.2583C1369.69 40.9414 1369.44 42.4017 1368.85 43.6395C1368.28 44.8766 1367.49 45.8421 1366.47 46.536C1365.46 47.2298 1364.36 47.6083 1363.15 47.6714ZM1356.59 55.161L1355.4 32.3763L1357.48 32.2674L1358.08 35.8247L1359.09 55.0304L1356.59 55.161ZM1380.22 46.7771C1378.9 46.8463 1377.7 46.5727 1376.62 45.9564C1375.55 45.3288 1374.68 44.4291 1374.01 43.2572C1373.35 42.0848 1372.98 40.7157 1372.9 39.1498C1372.81 37.4774 1373.03 36.0238 1373.56 34.7888C1374.1 33.5539 1374.86 32.5898 1375.86 31.8965C1376.87 31.192 1378.04 30.8049 1379.38 30.7351C1380.54 30.6743 1381.54 30.8567 1382.39 31.2824C1383.23 31.7081 1383.92 32.3073 1384.47 33.08C1385.01 33.8526 1385.4 34.7399 1385.65 35.7418C1385.9 36.7325 1386.01 37.768 1385.99 38.8483L1374.93 39.4278L1374.85 37.8939L1384.26 37.4007L1383.55 37.9185C1383.55 37.2884 1383.48 36.6619 1383.34 36.039C1383.21 35.4155 1382.99 34.8501 1382.69 34.3427C1382.38 33.8246 1381.97 33.4189 1381.46 33.1255C1380.94 32.8322 1380.29 32.7059 1379.51 32.7467C1378.53 32.798 1377.73 33.0913 1377.09 33.6266C1376.46 34.1619 1376 34.8482 1375.71 35.6858C1375.42 36.5126 1375.3 37.4001 1375.35 38.3481L1375.41 39.3707C1375.46 40.4359 1375.67 41.3809 1376.04 42.2056C1376.41 43.0299 1376.94 43.6699 1377.61 44.1259C1378.29 44.5818 1379.12 44.7838 1380.11 44.7319C1381.1 44.68 1381.9 44.3976 1382.52 43.8848C1383.13 43.3719 1383.48 42.6432 1383.57 41.6986L1386.16 41.5629C1386.05 42.5832 1385.74 43.4757 1385.21 44.2403C1384.68 44.9942 1383.99 45.5911 1383.14 46.031C1382.29 46.4709 1381.31 46.7196 1380.22 46.7771ZM1402.17 45.2419L1401.7 36.2623C1401.63 34.8029 1401.22 33.7135 1400.47 32.9941C1399.74 32.2634 1398.77 31.9296 1397.57 31.9927C1396.65 32.0407 1395.87 32.3327 1395.23 32.8685C1394.58 33.4043 1394.1 34.1504 1393.79 35.1067C1393.48 36.0524 1393.35 37.1697 1393.42 38.4586L1392.46 38.5089C1392.37 36.73 1392.52 35.1998 1392.93 33.9183C1393.33 32.6368 1393.96 31.6424 1394.82 30.9351C1395.69 30.2165 1396.77 29.8235 1398.06 29.7559C1399.26 29.6929 1400.31 29.9106 1401.19 30.4092C1402.08 30.8966 1402.78 31.6289 1403.29 32.6062C1403.8 33.5835 1404.09 34.7592 1404.16 36.1333L1404.63 45.113L1402.17 45.2419ZM1391.31 45.8114L1390.51 30.5363L1392.65 30.4241L1393.18 33.9209L1393.8 45.6807L1391.31 45.8114ZM1422.89 44.5405C1422.06 44.584 1421.31 44.4633 1420.63 44.1784C1419.96 43.8934 1419.41 43.4414 1418.99 42.8224C1418.57 42.2034 1418.34 41.4145 1418.29 40.4558L1417.47 24.8612L1419.93 24.7323L1420.75 40.263C1420.83 41.8395 1421.61 42.5892 1423.08 42.5122C1423.51 42.4893 1423.93 42.4193 1424.33 42.3022C1424.74 42.1846 1425.2 42.0165 1425.7 41.798L1426.14 43.5691C1425.61 43.8319 1425.08 44.0521 1424.54 44.2297C1424.02 44.4067 1423.47 44.5103 1422.89 44.5405ZM1415.33 30.966L1415.24 29.2404L1424.98 28.7296L1425.07 30.4552L1415.33 30.966ZM1435.74 43.8673C1434.37 43.9393 1433.12 43.6999 1432.02 43.1491C1430.92 42.5978 1430.03 41.7418 1429.35 40.5811C1428.67 39.4205 1428.28 37.9667 1428.19 36.2197C1428.1 34.4622 1428.33 32.976 1428.89 31.7612C1429.44 30.5358 1430.24 29.5916 1431.27 28.9286C1432.32 28.2651 1433.53 27.8973 1434.9 27.8253C1436.26 27.7538 1437.49 27.9938 1438.59 28.5451C1439.7 29.0959 1440.59 29.9519 1441.26 31.1131C1441.94 32.2631 1442.32 33.7169 1442.41 35.4745C1442.51 37.2214 1442.27 38.7076 1441.72 39.933C1441.17 41.1579 1440.38 42.1021 1439.34 42.7656C1438.3 43.4286 1437.1 43.7958 1435.74 43.8673ZM1435.56 41.6976C1436.55 41.6457 1437.38 41.3672 1438.05 40.8623C1438.72 40.3466 1439.2 39.6429 1439.51 38.751C1439.83 37.8585 1439.95 36.8105 1439.89 35.6068C1439.79 33.7853 1439.34 32.3724 1438.53 31.3681C1437.72 30.3532 1436.57 29.8848 1435.08 29.963C1434.07 30.0155 1433.24 30.2995 1432.57 30.8152C1431.92 31.3196 1431.43 32.0233 1431.11 32.9264C1430.81 33.8183 1430.69 34.8714 1430.75 36.0858C1430.84 37.886 1431.3 39.2935 1432.11 40.3084C1432.93 41.3121 1434.08 41.7752 1435.56 41.6976ZM1451.8 27.3242L1454.39 27.1885L1458.95 39.7347L1458.63 39.7515L1461.81 27.5367L1463.88 27.4278L1468.29 39.2776L1468 39.2927L1471.23 26.3059L1473.72 26.1753L1469.5 41.7133L1467.07 41.8406L1462.78 30.7543L1463.16 30.7342L1460.08 42.2073L1457.65 42.3346L1451.8 27.3242ZM1483.96 41.3404C1482.58 41.4124 1481.34 41.1731 1480.23 40.6223C1479.14 40.0709 1478.25 39.2149 1477.57 38.0543C1476.89 36.8936 1476.5 35.4398 1476.41 33.6929C1476.32 31.9353 1476.55 30.4491 1477.1 29.2344C1477.66 28.009 1478.45 27.0648 1479.49 26.4018C1480.53 25.7382 1481.74 25.3705 1483.11 25.2984C1484.48 25.227 1485.71 25.4669 1486.81 26.0183C1487.91 26.5691 1488.8 27.4251 1489.47 28.5863C1490.15 29.7363 1490.54 31.1901 1490.63 32.9476C1490.72 34.6946 1490.49 36.1807 1489.93 37.4062C1489.39 38.631 1488.59 39.5752 1487.55 40.2388C1486.52 40.9017 1485.32 41.269 1483.96 41.3404ZM1483.78 39.1708C1484.77 39.1188 1485.6 38.8404 1486.26 38.3354C1486.93 37.8198 1487.42 37.116 1487.72 36.2241C1488.04 35.3317 1488.17 34.2836 1488.1 33.0799C1488.01 31.2584 1487.56 29.8456 1486.74 28.8413C1485.93 27.8264 1484.78 27.358 1483.29 27.4362C1482.29 27.4886 1481.45 27.7727 1480.79 28.2883C1480.13 28.7927 1479.64 29.4965 1479.33 30.3996C1479.02 31.2915 1478.9 32.3446 1478.96 33.5589C1479.06 35.3591 1479.51 36.7667 1480.32 37.7816C1481.15 38.7853 1482.3 39.2484 1483.78 39.1708ZM1495.88 40.3308L1495.08 25.0238L1497.57 24.8932L1498.38 40.2002L1495.88 40.3308ZM1497.25 33.3378C1497.14 31.3992 1497.25 29.7809 1497.55 28.4832C1497.86 27.1747 1498.35 26.1876 1499.03 25.5217C1499.72 24.8446 1500.58 24.479 1501.62 24.4248C1501.96 24.407 1502.27 24.4174 1502.55 24.4562C1502.84 24.4837 1503.13 24.5379 1503.42 24.6187L1503.39 27.0877C1503.09 27.0074 1502.76 26.9446 1502.4 26.8991C1502.05 26.8429 1501.73 26.8221 1501.46 26.8366C1500.55 26.8841 1499.83 27.1833 1499.31 27.7343C1498.78 28.2746 1498.41 29.0201 1498.21 29.9709C1498.01 30.9211 1497.95 32.0301 1498.01 33.2976L1497.25 33.3378ZM1507.43 39.7257L1506.29 17.9316L1508.78 17.8009L1509.92 39.595L1507.43 39.7257ZM1509.08 30.8592L1516.54 23.9315L1520.02 23.7489L1509.22 33.5115L1509.08 30.8592ZM1518.1 39.1663L1510.34 29.8957L1512.84 29.316L1521.17 39.0055L1518.1 39.1663Z" fill="#3DCFB6"/>
</g>
</g>
<defs>
<clipPath id="clip0_3001_2710">
<rect width="1480" height="62" fill="white" transform="translate(-21 77.7695) rotate(-3)"/>
</clipPath>
<clipPath id="clip1_3001_2710">
<rect width="1416" height="38" fill="white" transform="translate(11.5842 88.0784) rotate(-3)"/>
</clipPath>
</defs>
</svg>
