<svg width="104" height="116" viewBox="0 0 104 116" fill="none" xmlns="http://www.w3.org/2000/svg">
<path d="M33.3681 40.5605L38.9041 5.08569C39.095 3.87668 40.7176 3.59034 41.2903 4.67208L47.2398 15.8077L33.3681 40.5605ZM72.7244 49.1826L67.443 16.5076C67.2839 15.4895 66.0112 15.0759 65.2795 15.8077L32 49.1826L50.4214 59.5228C51.5668 60.1591 52.9985 60.1591 54.1439 59.5228L72.7244 49.1826ZM57.7709 20.6755L53.5076 12.5624C53.0303 11.6398 51.7259 11.6398 51.2486 12.5624L32.5091 45.9692L57.7709 20.6755Z" fill="white"/>
<path d="M12.8691 77.885V82.223H17.7291V83.483H12.8691V89H11.3211V76.607H18.6201L18.4311 77.885H12.8691ZM26.2271 79.523V87.803H28.9001V89H21.7901V87.803H24.7151V80.72H21.8801V79.523H26.2271ZM25.0211 75.086C25.3571 75.086 25.6241 75.188 25.8221 75.392C26.0261 75.596 26.1281 75.845 26.1281 76.139C26.1281 76.445 26.0261 76.703 25.8221 76.913C25.6241 77.117 25.3571 77.219 25.0211 77.219C24.7031 77.219 24.4421 77.117 24.2381 76.913C24.0341 76.703 23.9321 76.445 23.9321 76.139C23.9321 75.845 24.0341 75.596 24.2381 75.392C24.4421 75.188 24.7031 75.086 25.0211 75.086ZM32.3131 89V87.839H33.7891V80.684H32.3131V79.523H34.9411L35.2201 81.764C35.5861 80.984 36.0301 80.381 36.5521 79.955C37.0741 79.529 37.7641 79.316 38.6221 79.316C38.8861 79.316 39.1201 79.337 39.3241 79.379C39.5341 79.415 39.7471 79.463 39.9631 79.523L39.5221 80.873C39.3241 80.819 39.1441 80.78 38.9821 80.756C38.8201 80.726 38.6341 80.711 38.4241 80.711C37.6981 80.711 37.0741 80.969 36.5521 81.485C36.0301 82.001 35.6131 82.781 35.3011 83.825V87.839H37.2271V89H32.3131ZM38.5051 82.727V80.666L38.6581 79.523H39.9631L39.7471 82.727H38.5051ZM44.204 84.797C44.234 85.529 44.375 86.129 44.627 86.597C44.879 87.059 45.212 87.401 45.626 87.623C46.04 87.839 46.49 87.947 46.976 87.947C47.462 87.947 47.9 87.875 48.29 87.731C48.686 87.587 49.091 87.374 49.505 87.092L50.216 88.091C49.772 88.439 49.265 88.712 48.695 88.91C48.131 89.108 47.552 89.207 46.958 89.207C46.04 89.207 45.257 89 44.609 88.586C43.961 88.172 43.466 87.596 43.124 86.858C42.788 86.114 42.62 85.253 42.62 84.275C42.62 83.315 42.791 82.463 43.133 81.719C43.475 80.975 43.955 80.39 44.573 79.964C45.191 79.538 45.92 79.325 46.76 79.325C47.558 79.325 48.245 79.514 48.821 79.892C49.397 80.264 49.838 80.798 50.144 81.494C50.456 82.184 50.612 83.009 50.612 83.969C50.612 84.131 50.609 84.284 50.603 84.428C50.597 84.566 50.588 84.689 50.576 84.797H44.204ZM46.778 80.567C46.076 80.567 45.488 80.816 45.014 81.314C44.546 81.812 44.279 82.583 44.213 83.627H49.154C49.136 82.613 48.914 81.851 48.488 81.341C48.062 80.825 47.492 80.567 46.778 80.567ZM55.321 80.756C55.669 80.3 56.068 79.949 56.518 79.703C56.974 79.451 57.475 79.325 58.021 79.325C58.867 79.325 59.551 79.529 60.073 79.937C60.595 80.345 60.976 80.921 61.216 81.665C61.456 82.403 61.576 83.267 61.576 84.257C61.576 85.211 61.432 86.063 61.144 86.813C60.856 87.557 60.433 88.142 59.875 88.568C59.323 88.994 58.639 89.207 57.823 89.207C56.725 89.207 55.864 88.811 55.24 88.019L55.132 89H53.809V75.707L55.321 75.518V80.756ZM57.463 87.983C58.255 87.983 58.864 87.677 59.29 87.065C59.716 86.453 59.929 85.514 59.929 84.248C59.929 83.42 59.845 82.733 59.677 82.187C59.509 81.635 59.257 81.224 58.921 80.954C58.591 80.678 58.183 80.54 57.697 80.54C57.169 80.54 56.704 80.699 56.302 81.017C55.906 81.329 55.579 81.677 55.321 82.061V86.759C55.567 87.131 55.876 87.428 56.248 87.65C56.626 87.872 57.031 87.983 57.463 87.983ZM71.388 86.93C71.388 87.308 71.451 87.584 71.577 87.758C71.703 87.932 71.898 88.061 72.162 88.145L71.793 89.207C71.385 89.153 71.028 89.024 70.722 88.82C70.416 88.61 70.194 88.295 70.056 87.875C69.714 88.313 69.288 88.646 68.778 88.874C68.268 89.096 67.704 89.207 67.086 89.207C66.138 89.207 65.391 88.94 64.845 88.406C64.299 87.872 64.026 87.164 64.026 86.282C64.026 85.304 64.407 84.554 65.169 84.032C65.931 83.51 67.032 83.249 68.472 83.249H69.867V82.457C69.867 81.773 69.666 81.29 69.264 81.008C68.868 80.72 68.316 80.576 67.608 80.576C67.296 80.576 66.93 80.615 66.51 80.693C66.09 80.765 65.634 80.888 65.142 81.062L64.746 79.919C65.328 79.703 65.874 79.55 66.384 79.46C66.894 79.37 67.38 79.325 67.842 79.325C69.024 79.325 69.909 79.601 70.497 80.153C71.091 80.699 71.388 81.443 71.388 82.385V86.93ZM67.473 88.055C67.941 88.055 68.388 87.938 68.814 87.704C69.24 87.464 69.591 87.134 69.867 86.714V84.275H68.499C67.455 84.275 66.717 84.455 66.285 84.815C65.859 85.175 65.646 85.658 65.646 86.264C65.646 86.852 65.796 87.299 66.096 87.605C66.402 87.905 66.861 88.055 67.473 88.055ZM78.6169 87.956C79.3429 87.956 79.9159 87.821 80.3359 87.551C80.7619 87.275 80.9749 86.909 80.9749 86.453C80.9749 86.165 80.9209 85.916 80.8129 85.706C80.7109 85.496 80.4979 85.307 80.1739 85.139C79.8499 84.971 79.3519 84.803 78.6799 84.635C78.0259 84.473 77.4559 84.287 76.9699 84.077C76.4899 83.861 76.1149 83.582 75.8449 83.24C75.5809 82.898 75.4489 82.454 75.4489 81.908C75.4489 81.374 75.5989 80.915 75.8989 80.531C76.2049 80.141 76.6279 79.844 77.1679 79.64C77.7079 79.43 78.3349 79.325 79.0489 79.325C79.8109 79.325 80.4739 79.427 81.0379 79.631C81.6079 79.829 82.0909 80.075 82.4869 80.369L81.8209 81.395C81.4609 81.149 81.0649 80.948 80.6329 80.792C80.2009 80.63 79.6789 80.549 79.0669 80.549C78.3229 80.549 77.7949 80.666 77.4829 80.9C77.1709 81.128 77.0149 81.425 77.0149 81.791C77.0149 82.067 77.0899 82.298 77.2399 82.484C77.3959 82.664 77.6569 82.829 78.0229 82.979C78.3889 83.123 78.8929 83.282 79.5349 83.456C80.1529 83.618 80.6899 83.813 81.1459 84.041C81.6079 84.269 81.9679 84.569 82.2259 84.941C82.4839 85.313 82.6129 85.793 82.6129 86.381C82.6129 87.053 82.4209 87.599 82.0369 88.019C81.6529 88.433 81.1549 88.736 80.5429 88.928C79.9369 89.114 79.2949 89.207 78.6169 89.207C77.7589 89.207 77.0269 89.084 76.4209 88.838C75.8209 88.586 75.3169 88.283 74.9089 87.929L75.7729 86.93C76.1449 87.236 76.5709 87.485 77.0509 87.677C77.5369 87.863 78.0589 87.956 78.6169 87.956ZM87.3759 84.797C87.4059 85.529 87.5469 86.129 87.7989 86.597C88.0509 87.059 88.3839 87.401 88.7979 87.623C89.2119 87.839 89.6619 87.947 90.1479 87.947C90.6339 87.947 91.0719 87.875 91.4619 87.731C91.8579 87.587 92.2629 87.374 92.6769 87.092L93.3879 88.091C92.9439 88.439 92.4369 88.712 91.8669 88.91C91.3029 89.108 90.7239 89.207 90.1299 89.207C89.2119 89.207 88.4289 89 87.7809 88.586C87.1329 88.172 86.6379 87.596 86.2959 86.858C85.9599 86.114 85.7919 85.253 85.7919 84.275C85.7919 83.315 85.9629 82.463 86.3049 81.719C86.6469 80.975 87.1269 80.39 87.7449 79.964C88.3629 79.538 89.0919 79.325 89.9319 79.325C90.7299 79.325 91.4169 79.514 91.9929 79.892C92.5689 80.264 93.0099 80.798 93.3159 81.494C93.6279 82.184 93.7839 83.009 93.7839 83.969C93.7839 84.131 93.7809 84.284 93.7749 84.428C93.7689 84.566 93.7599 84.689 93.7479 84.797H87.3759ZM89.9499 80.567C89.2479 80.567 88.6599 80.816 88.1859 81.314C87.7179 81.812 87.4509 82.583 87.3849 83.627H92.3259C92.3079 82.613 92.0859 81.851 91.6599 81.341C91.2339 80.825 90.6639 80.567 89.9499 80.567Z" fill="white"/>
</svg>
