<svg width="104" height="116" viewBox="0 0 104 116" fill="none" xmlns="http://www.w3.org/2000/svg">
<path d="M78.9494 29.5334L54.4666 5.05057C53.0658 3.64981 50.7515 3.64981 49.3507 5.05057L44.2958 10.1055L50.7515 16.5612C52.2741 16.074 53.9793 16.3785 55.1365 17.5965C56.3545 18.8146 56.6591 20.5198 56.1718 22.0424L62.3839 28.2545C63.9065 27.7673 65.6118 28.0718 66.8298 29.2898C68.5351 30.9342 68.5351 33.6748 66.8298 35.3801C65.1245 37.0854 62.4448 37.0854 60.7395 35.3801C59.4606 34.1011 59.1561 32.2741 59.826 30.6906L54.0402 24.9048V40.1305C54.4666 40.3132 54.832 40.6177 55.1974 40.9222C56.9027 42.5666 56.9027 45.3072 55.1974 47.0125C53.4921 48.6569 50.8124 48.6569 49.1071 47.0125C47.4019 45.3072 47.4019 42.6275 49.1071 40.9222C49.5334 40.4959 50.0207 40.1914 50.5079 40.0087V24.6003C50.0207 24.4176 49.5334 24.0522 49.1071 23.6868C47.8282 22.4078 47.5237 20.5808 48.1936 18.9973L41.7988 12.6634L25.0506 29.4116C23.6498 30.8124 23.6498 33.1267 25.0506 34.5275L49.4725 58.9494C50.8733 60.3502 53.1876 60.3502 54.5884 58.9494L78.8885 34.6493C80.3502 33.1876 80.3502 30.9342 78.9494 29.5334Z" fill="white"/>
<path d="M41.4535 89.207C40.4755 89.207 39.6235 88.97 38.8975 88.496C38.1775 88.022 37.6195 87.311 37.2235 86.363C36.8275 85.415 36.6295 84.227 36.6295 82.799C36.6295 81.731 36.7705 80.798 37.0525 80C37.3405 79.202 37.7275 78.536 38.2135 78.002C38.7055 77.468 39.2605 77.069 39.8785 76.805C40.5025 76.541 41.1475 76.409 41.8135 76.409C42.6235 76.409 43.2955 76.526 43.8295 76.76C44.3635 76.988 44.8735 77.324 45.3595 77.768L44.4145 78.749C44.0365 78.395 43.6375 78.134 43.2175 77.966C42.8035 77.798 42.3385 77.714 41.8225 77.714C41.3725 77.714 40.9375 77.801 40.5175 77.975C40.0975 78.149 39.7195 78.434 39.3835 78.83C39.0535 79.22 38.7895 79.739 38.5915 80.387C38.3995 81.035 38.3035 81.839 38.3035 82.799C38.3035 83.993 38.4265 84.965 38.6725 85.715C38.9245 86.465 39.2935 87.017 39.7795 87.371C40.2715 87.719 40.8775 87.893 41.5975 87.893C42.0295 87.893 42.4375 87.842 42.8215 87.74C43.2115 87.638 43.5895 87.491 43.9555 87.299V83.519H41.5165L41.3275 82.223H45.5035V88.127C44.9455 88.427 44.3515 88.682 43.7215 88.892C43.0915 89.102 42.3355 89.207 41.4535 89.207ZM53.2095 79.523V87.803H55.8825V89H48.7725V87.803H51.6975V80.72H48.8625V79.523H53.2095ZM52.0035 75.086C52.3395 75.086 52.6065 75.188 52.8045 75.392C53.0085 75.596 53.1105 75.845 53.1105 76.139C53.1105 76.445 53.0085 76.703 52.8045 76.913C52.6065 77.117 52.3395 77.219 52.0035 77.219C51.6855 77.219 51.4245 77.117 51.2205 76.913C51.0165 76.703 50.9145 76.445 50.9145 76.139C50.9145 75.845 51.0165 75.596 51.2205 75.392C51.4245 75.188 51.6855 75.086 52.0035 75.086ZM66.7295 88.523C66.4055 88.739 66.0125 88.907 65.5505 89.027C65.0885 89.147 64.6355 89.207 64.1915 89.207C63.1715 89.207 62.3855 88.94 61.8335 88.406C61.2815 87.872 61.0055 87.185 61.0055 86.345V80.693H58.8275V79.523H61.0055V77.372L62.5175 77.192V79.523H65.7935L65.6135 80.693H62.5175V86.327C62.5175 86.855 62.6555 87.257 62.9315 87.533C63.2135 87.809 63.6785 87.947 64.3265 87.947C64.6805 87.947 65.0075 87.905 65.3075 87.821C65.6075 87.737 65.8865 87.629 66.1445 87.497L66.7295 88.523Z" fill="white"/>
</svg>
