<svg width="104" height="116" viewBox="0 0 104 116" fill="none" xmlns="http://www.w3.org/2000/svg">
<path d="M45.3571 55.2323C41.6425 54.1709 38.3757 52.2166 35.5235 49.4874C34.628 49.8075 33.7159 50.1276 32.7873 50.4308C32.3561 50.5656 31.925 50.515 31.4772 50.3466C30.6813 50.0433 30.2004 49.4537 29.8521 48.7292C29.3712 47.769 28.7577 46.8929 28.2768 45.9326C27.8456 45.0397 27.2154 44.2647 26.8506 43.3381C26.6682 42.8833 26.1873 42.58 26.1873 42.0072C25.7562 41.2996 26.1707 40.6763 26.4195 40.0529C26.4858 39.8845 26.5687 39.6655 26.718 39.5981C27.3149 39.3285 27.6134 38.722 28.1109 38.3514C28.3431 38.1829 28.5918 37.9976 28.8572 37.7954C28.4757 35.858 28.1441 33.9206 28.1441 31.9326C28.1441 29.9615 28.4923 28.0578 28.8572 26.1709C28.2104 25.5644 27.6134 24.9747 26.9833 24.4188C26.3366 23.846 25.9551 23.1384 26.0381 22.3971C26.0878 21.9928 26.2039 21.5548 26.4029 21.2178C27.0165 20.2238 27.5803 19.1793 28.1773 18.1685C28.6582 17.3598 29.0727 16.5174 29.6034 15.7256C29.8853 15.3213 30.0511 14.8496 30.333 14.4284C30.8803 13.6366 31.9747 13.2491 32.8702 13.5187C33.6662 13.7545 34.4124 14.1083 35.225 14.2599C35.3079 14.2768 35.3742 14.3947 35.4571 14.4789C38.326 11.7665 41.5928 9.82912 45.3405 8.70036C45.4898 8.24549 45.5229 7.75692 45.7053 7.2852C45.838 6.93141 45.8048 6.49338 45.8712 6.1059C46.0536 5.09507 46.6672 4.50542 47.546 4.20217C47.8611 4.10108 48.1762 4 48.5576 4C50.8792 4.03369 53.2008 4.03369 55.5224 4C56.1857 4 56.7495 4.26955 57.2802 4.5728C57.7611 4.82551 58.0264 5.36462 58.1591 5.87004C58.3912 6.79663 58.5239 7.74007 58.7063 8.71721C62.4375 9.79543 65.7043 11.7329 68.5565 14.4621C69.452 14.142 70.3641 13.8219 71.2927 13.5187C71.7239 13.3839 72.155 13.4344 72.6028 13.6029C73.3987 13.9061 73.8796 14.4958 74.2279 15.2202C74.7088 16.1805 75.3223 17.0566 75.8032 18.0168C76.2344 18.9097 76.8646 19.6847 77.2294 20.6113C77.4118 21.0662 77.8927 21.3694 77.8927 21.9422C78.3238 22.6498 77.9093 23.2732 77.6605 23.8965C77.5942 24.065 77.5113 24.284 77.362 24.3514C76.7651 24.6209 76.4666 25.2274 75.9691 25.5981C75.7369 25.7665 75.4882 25.9519 75.2228 26.154C75.6043 28.0915 75.9359 30.0289 75.9359 32.0168C75.9359 33.988 75.6374 35.8917 75.2228 37.7786C75.8696 38.3851 76.4666 38.9747 77.0967 39.5307C77.7434 40.1035 78.1248 40.8111 78.0419 41.5523C77.9922 41.9567 77.8927 42.3947 77.6771 42.7316C77.0801 43.7088 76.5163 44.7196 75.9359 45.7136C75.2063 46.9434 74.6093 48.2744 73.7636 49.4368C73.6143 50.077 73.0173 50.1276 72.5862 50.3634C72.1219 50.6161 71.6575 50.5487 71.1435 50.3971C70.3806 50.1781 69.651 49.7906 68.855 49.6895C68.7721 49.6727 68.7058 49.5548 68.6229 49.4705C65.754 52.2166 62.5038 54.1709 58.7063 55.2659C58.5239 56.1757 58.3581 57.1191 58.1591 58.0457C57.9601 58.9555 57.3631 59.5283 56.5174 59.7978C56.2023 59.8989 55.8706 60 55.5058 60C53.1842 59.9663 50.8626 59.9663 48.541 60C47.8777 60 47.3139 59.7304 46.7832 59.4272C46.3023 59.1745 46.0204 58.6354 45.9209 58.13C45.7385 57.136 45.5561 56.2094 45.3571 55.2323ZM46.435 40.3899C46.7666 40.2046 47.1481 40.0866 47.1646 39.6823C47.1978 39.0758 47.2807 38.4525 47.1481 37.8797C46.9159 36.9025 46.5013 35.9591 46.2526 34.9819C46.0868 34.3586 45.7219 33.769 45.7385 33.0951C45.2079 31.7641 44.8762 30.3658 44.4285 29.0181C44.0636 27.9061 43.7983 26.7605 43.4003 25.6655C43.1847 25.059 43.135 24.3851 42.737 23.846C42.7038 23.7954 42.6873 23.7617 42.6873 23.7617C42.2395 23.4585 41.7752 23.5596 41.3772 23.5596C41.1451 23.7786 40.9461 23.9639 40.7636 24.1324C40.7471 24.6715 40.3657 25.0927 40.432 25.6149C39.8516 26.929 39.6028 28.3442 39.1219 29.6919C38.8732 30.3827 38.724 31.0903 38.525 31.7978C38.3426 32.5054 37.9446 33.1456 37.9446 33.9037C37.3144 35.3357 36.9993 36.8688 36.535 38.3682C36.4189 38.7389 36.3526 39.0927 36.5848 39.4464C36.6511 39.5475 36.6179 39.6992 36.6179 39.6823C36.8833 39.9687 37.0823 40.1709 37.2481 40.373C37.5632 40.373 37.8948 40.373 38.2431 40.373C38.4752 40.0698 38.7074 39.7834 38.923 39.497C38.8732 38.5367 39.0722 37.8965 39.5034 36.8688C41.1285 36.8688 42.7536 36.8688 44.3787 36.8688C44.5114 37.4079 44.5777 37.9302 44.7601 38.4188C44.843 38.6209 44.9259 38.8231 44.8928 39.0253C44.843 39.6486 45.042 40.1372 45.7385 40.373C45.9043 40.3899 46.1531 40.3899 46.435 40.3899ZM50.3154 40.3899C50.7631 40.3562 51.2772 40.491 51.642 40.1203C51.7747 39.9519 51.8908 39.7834 52.0566 39.5475C52.0566 37.8628 52.0566 36.0939 52.0566 34.3249C53.2671 34.3249 54.4611 34.2744 55.6385 34.3418C56.3515 34.3755 56.9319 34.1564 57.4958 33.8026C57.7611 33.6342 57.9932 33.3815 58.2254 33.1456C58.839 32.5391 59.1375 31.7978 59.154 30.9218C59.154 29.5403 59.154 28.1757 59.154 26.7942C59.154 26.5921 59.1043 26.373 59.0546 26.1709C58.8721 25.4464 58.4907 24.9073 57.9767 24.4356C57.3797 23.8797 56.6832 23.5427 55.8541 23.5427C53.9968 23.5427 52.1561 23.5427 50.2822 23.5427C50.0998 23.7449 49.9174 23.9471 49.7018 24.1492C49.7018 29.3381 49.7018 34.5608 49.7018 39.8002C49.9174 39.9856 50.1164 40.1877 50.3154 40.3899ZM62.255 40.3899C63.3993 40.3899 64.5601 40.3899 65.7043 40.3899C65.9033 40.1877 66.1023 39.9856 66.3013 39.8002C66.3013 39.4801 66.3013 39.1769 66.3013 38.8568C66.3013 38.8231 66.3013 38.8063 66.3013 38.7894C66.0525 38.3177 65.6711 38.0313 65.1736 37.9807C65.1736 33.9543 65.1736 29.9446 65.1736 26.0193C65.5385 25.8339 65.8535 25.6655 66.2184 25.4633C66.2681 25.0253 66.3013 24.5704 66.3344 24.2503C66.0691 23.9471 65.8867 23.728 65.7374 23.5596C64.5435 23.5596 63.3827 23.5596 62.3545 23.5596C62.0726 23.8123 61.8736 23.9976 61.6249 24.2335C61.6746 24.6378 61.741 25.0927 61.7907 25.4801C62.1887 25.6823 62.5038 25.8508 62.7857 26.0024C62.7857 30.012 62.7857 34.0217 62.7857 37.9976C62.6199 38.0313 62.4375 37.9976 62.3711 38.0818C62.139 38.3177 61.741 38.3851 61.6581 38.7726C61.6581 39.1095 61.6581 39.4464 61.6581 39.7834C61.8571 39.9856 62.056 40.1877 62.255 40.3899Z" fill="white"/>
<path d="M43.5087 34.2921C42.5303 34.3258 41.5022 34.3426 40.474 34.3763C40.4409 34.3763 40.3911 34.4437 40.2916 34.528C40.3082 33.4834 40.8886 32.6411 40.9549 31.6808C41.4524 30.8384 41.5022 29.8444 41.8338 28.901C41.9333 29.0021 42.0826 29.1032 42.0826 29.1874C42.0992 29.9118 42.5137 30.5352 42.6464 31.2259C42.7459 31.6976 43.0112 32.1525 43.0775 32.6242C43.1439 33.2307 43.5419 33.6856 43.5087 34.2921Z" fill="white"/>
<path d="M56.8508 31.0222C56.7347 31.2075 56.6352 31.3929 56.5026 31.5613C56.2704 31.8309 55.9719 31.9825 55.5905 31.9657C54.4297 31.9488 53.2689 31.9657 52.075 31.9657C52.075 29.9608 52.075 27.956 52.075 25.9007C53.2855 25.9007 54.5292 25.8838 55.7563 25.9007C56.3367 25.9175 56.8342 26.524 56.8508 27.1642C56.8508 28.2256 56.8508 29.287 56.8508 30.3483C56.8508 30.5842 56.8508 30.8032 56.8508 31.0222Z" fill="white"/>
<path d="M18.5031 80.081C18.5031 80.699 18.3681 81.239 18.0981 81.701C17.8341 82.163 17.4741 82.544 17.0181 82.844C16.5621 83.144 16.0491 83.363 15.4791 83.501L19.1511 89H17.2791L13.8951 83.681H12.2211V89H10.6551V76.607H13.8411C15.3711 76.607 16.5291 76.901 17.3151 77.489C18.1071 78.071 18.5031 78.935 18.5031 80.081ZM16.8291 80.081C16.8291 79.283 16.6011 78.713 16.1451 78.371C15.6891 78.023 14.9811 77.849 14.0211 77.849H12.2211V82.457H14.0211C14.9091 82.457 15.5991 82.277 16.0911 81.917C16.5831 81.551 16.8291 80.939 16.8291 80.081ZM23.4461 77.885V82.061H28.0361V83.348H23.4461V87.749H29.0801V89H21.8801V76.607H28.9181L28.7381 77.885H23.4461ZM40.0711 85.571C40.0711 86.279 39.8941 86.909 39.5401 87.461C39.1861 88.007 38.6731 88.436 38.0011 88.748C37.3291 89.054 36.5101 89.207 35.5441 89.207C34.6381 89.207 33.8161 89.069 33.0781 88.793C32.3461 88.517 31.7191 88.127 31.1971 87.623L32.1241 86.579C32.5561 86.981 33.0511 87.302 33.6091 87.542C34.1671 87.776 34.8211 87.893 35.5711 87.893C36.0751 87.893 36.5461 87.812 36.9841 87.65C37.4221 87.482 37.7761 87.23 38.0461 86.894C38.3161 86.552 38.4511 86.12 38.4511 85.598C38.4511 85.196 38.3731 84.854 38.2171 84.572C38.0611 84.29 37.7851 84.041 37.3891 83.825C36.9931 83.603 36.4411 83.387 35.7331 83.177C34.9171 82.937 34.2091 82.667 33.6091 82.367C33.0151 82.061 32.5531 81.686 32.2231 81.242C31.8991 80.798 31.7371 80.249 31.7371 79.595C31.7371 78.977 31.9081 78.428 32.2501 77.948C32.5921 77.468 33.0631 77.093 33.6631 76.823C34.2691 76.547 34.9651 76.409 35.7511 76.409C36.6091 76.409 37.3531 76.532 37.9831 76.778C38.6191 77.018 39.1951 77.366 39.7111 77.822L38.7931 78.839C38.3491 78.443 37.8721 78.158 37.3621 77.984C36.8521 77.804 36.3331 77.714 35.8051 77.714C35.3551 77.714 34.9411 77.783 34.5631 77.921C34.1911 78.053 33.8911 78.254 33.6631 78.524C33.4411 78.788 33.3301 79.127 33.3301 79.541C33.3301 79.895 33.4261 80.201 33.6181 80.459C33.8101 80.717 34.1341 80.954 34.5901 81.17C35.0461 81.38 35.6671 81.602 36.4531 81.836C37.0951 82.022 37.6891 82.256 38.2351 82.538C38.7871 82.814 39.2311 83.192 39.5671 83.672C39.9031 84.146 40.0711 84.779 40.0711 85.571ZM47.354 77.948V89H45.797V77.948H41.927V76.607H51.278L51.116 77.948H47.354ZM53.791 84.023V82.709H61.009V84.023H53.791ZM70.596 85.841H65.691L64.701 89H63.162L67.194 76.607H69.192L73.224 89H71.586L70.596 85.841ZM66.096 84.545H70.191L68.157 77.921L66.096 84.545ZM81.9379 80.432C81.9379 79.79 81.8119 79.283 81.5599 78.911C81.3079 78.533 80.9629 78.263 80.5249 78.101C80.0869 77.933 79.5859 77.849 79.0219 77.849H77.2309V83.141H78.9589C79.5409 83.141 80.0539 83.063 80.4979 82.907C80.9419 82.745 81.2929 82.469 81.5509 82.079C81.8089 81.683 81.9379 81.134 81.9379 80.432ZM83.6119 80.414C83.6119 81.38 83.4049 82.154 82.9909 82.736C82.5829 83.318 82.0189 83.741 81.2989 84.005C80.5789 84.269 79.7509 84.401 78.8149 84.401H77.2309V89H75.6649V76.607H78.8329C80.3089 76.607 81.4729 76.919 82.3249 77.543C83.1829 78.161 83.6119 79.118 83.6119 80.414ZM93.3249 76.607V77.858H90.5709V87.749H93.3249V89H86.2329V87.749H88.9869V77.858H86.2329V76.607H93.3249Z" fill="white"/>
</svg>
