<svg width="104" height="116" viewBox="0 0 104 116" fill="none" xmlns="http://www.w3.org/2000/svg">
<path fill-rule="evenodd" clip-rule="evenodd" d="M78.7991 19.769L73.8363 26.7081L68.8735 19.769H71.5794C71.3731 14.6132 67.1141 10.4886 61.9086 10.4886C57.5161 10.4886 53.791 13.4365 52.614 17.452C51.1822 16.991 49.7019 16.6998 48.1973 16.5664C48.3671 15.9234 48.5856 15.2804 48.8525 14.6618C49.5684 12.9755 50.5877 11.4591 51.886 10.161C53.1843 8.86299 54.7011 7.83183 56.3877 7.12821C58.135 6.37607 59.9915 6 61.9086 6C63.8258 6 65.6823 6.37607 67.4296 7.11608C69.1162 7.83183 70.6329 8.85086 71.9312 10.1489C73.2296 11.447 74.2488 12.9634 74.9647 14.6496C75.6564 16.2752 76.0325 17.9979 76.0689 19.769H78.7991Z" fill="white"/>
<path fill-rule="evenodd" clip-rule="evenodd" d="M71.8682 58.4091V55.4248H54.7594C54.8807 55.3642 55.0021 55.3157 55.1234 55.255C56.9799 54.3694 58.6908 53.2169 60.2197 51.8097C60.4259 51.6156 60.6201 51.4336 60.8021 51.2517C61.0084 51.0454 61.2268 50.8271 61.4331 50.5966C61.6757 50.3297 61.9184 50.0507 62.1368 49.7717H71.8682V46.7874L79.998 52.5982L71.8682 58.4091Z" fill="white"/>
<path fill-rule="evenodd" clip-rule="evenodd" d="M65.5587 36.8508C65.5587 39.4347 65.0491 41.9459 64.0541 44.3115C63.2047 46.3253 62.0156 48.1693 60.5353 49.7827C60.3411 49.989 60.147 50.1952 59.9528 50.4014C59.7708 50.5834 59.5888 50.7532 59.4068 50.9352C57.975 52.2575 56.3733 53.3372 54.626 54.1743C54.3834 54.2956 54.1286 54.4048 53.8737 54.514C53.8616 54.514 53.8616 54.5261 53.8495 54.5261C52.3934 55.1448 50.8281 55.4481 49.2386 55.4481H24V49.807H47.4306C54.5168 49.807 60.329 44.1417 60.4261 37.057C60.4261 36.9963 60.4261 36.9357 60.4261 36.875C60.4261 29.1353 54.1407 22.8512 46.3992 22.8512C38.6578 22.827 32.3724 29.0989 32.3724 36.8508H35.6243L29.8122 44.9787L24 36.8508H27.2519C27.2519 34.2668 27.7615 31.7556 28.7565 29.39C29.7272 27.1093 31.0984 25.0591 32.8578 23.3001C34.6172 21.5411 36.6678 20.1581 38.949 19.1997C41.3151 18.2049 43.8268 17.6954 46.4114 17.6954C46.9331 17.6954 47.4428 17.7197 47.9524 17.7561C49.457 17.8774 50.9252 18.1686 52.357 18.6417C52.8666 18.8115 53.3641 18.9935 53.8616 19.2118C56.1428 20.1824 58.1934 21.5532 59.9528 23.3122C61.7123 25.0713 63.0955 27.1215 64.0541 29.4021C65.0491 31.7556 65.5587 34.2668 65.5587 36.8508Z" fill="white"/>
<path d="M34.6746 85.571C34.6746 86.279 34.4976 86.909 34.1436 87.461C33.7896 88.007 33.2766 88.436 32.6046 88.748C31.9326 89.054 31.1136 89.207 30.1476 89.207C29.2416 89.207 28.4196 89.069 27.6816 88.793C26.9496 88.517 26.3226 88.127 25.8006 87.623L26.7276 86.579C27.1596 86.981 27.6546 87.302 28.2126 87.542C28.7706 87.776 29.4246 87.893 30.1746 87.893C30.6786 87.893 31.1496 87.812 31.5876 87.65C32.0256 87.482 32.3796 87.23 32.6496 86.894C32.9196 86.552 33.0546 86.12 33.0546 85.598C33.0546 85.196 32.9766 84.854 32.8206 84.572C32.6646 84.29 32.3886 84.041 31.9926 83.825C31.5966 83.603 31.0446 83.387 30.3366 83.177C29.5206 82.937 28.8126 82.667 28.2126 82.367C27.6186 82.061 27.1566 81.686 26.8266 81.242C26.5026 80.798 26.3406 80.249 26.3406 79.595C26.3406 78.977 26.5116 78.428 26.8536 77.948C27.1956 77.468 27.6666 77.093 28.2666 76.823C28.8726 76.547 29.5686 76.409 30.3546 76.409C31.2126 76.409 31.9566 76.532 32.5866 76.778C33.2226 77.018 33.7986 77.366 34.3146 77.822L33.3966 78.839C32.9526 78.443 32.4756 78.158 31.9656 77.984C31.4556 77.804 30.9366 77.714 30.4086 77.714C29.9586 77.714 29.5446 77.783 29.1666 77.921C28.7946 78.053 28.4946 78.254 28.2666 78.524C28.0446 78.788 27.9336 79.127 27.9336 79.541C27.9336 79.895 28.0296 80.201 28.2216 80.459C28.4136 80.717 28.7376 80.954 29.1936 81.17C29.6496 81.38 30.2706 81.602 31.0566 81.836C31.6986 82.022 32.2926 82.256 32.8386 82.538C33.3906 82.814 33.8346 83.192 34.1706 83.672C34.5066 84.146 34.6746 84.779 34.6746 85.571ZM41.9035 87.902C42.3775 87.902 42.8185 87.824 43.2265 87.668C43.6405 87.512 44.0215 87.314 44.3695 87.074L45.1075 88.064C44.6935 88.418 44.1955 88.697 43.6135 88.901C43.0315 89.105 42.4615 89.207 41.9035 89.207C40.9615 89.207 40.1575 89.006 39.4915 88.604C38.8315 88.196 38.3275 87.626 37.9795 86.894C37.6315 86.156 37.4575 85.292 37.4575 84.302C37.4575 83.354 37.6315 82.505 37.9795 81.755C38.3335 80.999 38.8405 80.405 39.5005 79.973C40.1665 79.541 40.9735 79.325 41.9215 79.325C42.5275 79.325 43.0945 79.418 43.6225 79.604C44.1565 79.784 44.6455 80.057 45.0895 80.423L44.3515 81.431C43.9495 81.149 43.5445 80.939 43.1365 80.801C42.7345 80.657 42.3235 80.585 41.9035 80.585C41.0875 80.585 40.4155 80.891 39.8875 81.503C39.3595 82.115 39.0955 83.048 39.0955 84.302C39.0955 85.142 39.2155 85.829 39.4555 86.363C39.7015 86.891 40.0345 87.281 40.4545 87.533C40.8805 87.779 41.3635 87.902 41.9035 87.902ZM48.5025 89V87.839H49.9785V80.684H48.5025V79.523H51.1305L51.4095 81.764C51.7755 80.984 52.2195 80.381 52.7415 79.955C53.2635 79.529 53.9535 79.316 54.8115 79.316C55.0755 79.316 55.3095 79.337 55.5135 79.379C55.7235 79.415 55.9365 79.463 56.1525 79.523L55.7115 80.873C55.5135 80.819 55.3335 80.78 55.1715 80.756C55.0095 80.726 54.8235 80.711 54.6135 80.711C53.8875 80.711 53.2635 80.969 52.7415 81.485C52.2195 82.001 51.8025 82.781 51.4905 83.825V87.839H53.4165V89H48.5025ZM54.6945 82.727V80.666L54.8475 79.523H56.1525L55.9365 82.727H54.6945ZM60.7175 79.523V86.237C60.7175 86.861 60.8465 87.311 61.1045 87.587C61.3625 87.863 61.7645 88.001 62.3105 88.001C62.8325 88.001 63.3245 87.854 63.7865 87.56C64.2545 87.26 64.6175 86.906 64.8755 86.498V79.523H66.3875V89H65.1005L64.9745 87.722C64.6025 88.202 64.1435 88.571 63.5975 88.829C63.0515 89.081 62.4995 89.207 61.9415 89.207C61.0235 89.207 60.3365 88.964 59.8805 88.478C59.4305 87.986 59.2055 87.299 59.2055 86.417V79.523H60.7175ZM76.2445 79.325C76.5505 79.325 76.8415 79.391 77.1175 79.523C77.3995 79.655 77.6305 79.91 77.8105 80.288C77.9905 80.666 78.0805 81.218 78.0805 81.944V89H76.6765V82.187C76.6765 81.593 76.6405 81.164 76.5685 80.9C76.4965 80.636 76.2895 80.504 75.9475 80.504C75.6655 80.504 75.3835 80.594 75.1015 80.774C74.8255 80.948 74.5555 81.236 74.2915 81.638V89H72.8785V82.187C72.8785 81.593 72.8425 81.164 72.7705 80.9C72.6985 80.636 72.4915 80.504 72.1495 80.504C71.8555 80.504 71.5705 80.594 71.2945 80.774C71.0245 80.948 70.7575 81.236 70.4935 81.638V89H69.0985V79.523H70.2865L70.3765 80.621C70.6345 80.255 70.9225 79.949 71.2405 79.703C71.5645 79.451 71.9635 79.325 72.4375 79.325C72.7975 79.325 73.1365 79.412 73.4545 79.586C73.7725 79.754 74.0065 80.084 74.1565 80.576C74.4145 80.204 74.7055 79.904 75.0295 79.676C75.3535 79.442 75.7585 79.325 76.2445 79.325Z" fill="white"/>
</svg>
