<svg width="104" height="116" viewBox="0 0 104 116" fill="none" xmlns="http://www.w3.org/2000/svg">
<path d="M24 4C42.6793 4 61.3207 4 80 4C80 22.6793 80 41.3585 80 60C61.3585 60 42.6793 60 24 60C24 41.2829 24 22.6415 24 4ZM74.1013 33.6448C72.9669 31.603 71.4166 30.2039 69.1857 29.7124C67.5976 29.3342 66.0094 29.3342 64.4213 29.6745C59.2789 30.7333 57.0858 36.9345 60.4132 41.056C61.5854 42.4929 63.1357 43.3626 64.7616 44.1188C66.1985 44.7995 67.6732 45.4423 69.1101 46.1607C70.0932 46.6523 70.5091 47.5598 70.3957 48.6563C70.2822 49.7529 69.526 50.3579 68.5807 50.6982C66.4632 51.4544 64.0054 50.7738 62.5685 48.9966C62.266 48.6185 61.9635 48.2026 61.661 47.7866C60.2242 48.6185 58.8251 49.4126 57.4261 50.2444C58.2957 51.946 59.5057 53.3072 61.1695 54.2147C64.0054 55.765 66.9926 55.9919 70.0554 55.2356C72.0594 54.7441 73.761 53.7232 74.8197 51.8704C76.7859 48.3538 75.6516 43.9676 72.1729 41.8123C70.6225 40.867 68.8832 40.2242 67.2573 39.3923C66.4632 38.9764 65.6313 38.5982 64.9507 38.0689C63.7407 37.0858 63.9676 35.1195 65.3288 34.3633C66.6523 33.607 68.5051 34.0608 69.526 35.3842C69.7529 35.6489 69.9041 35.9514 70.131 36.2539C71.4166 35.3842 72.74 34.5145 74.1013 33.6448ZM38.7468 50.8116C39.503 52.4375 40.5996 53.7232 42.1499 54.555C44.1539 55.6516 46.3471 55.8406 48.578 55.5003C50.582 55.1978 52.2458 54.2903 53.3423 52.4753C54.2498 50.9629 54.5145 49.2991 54.5145 47.5219C54.5145 41.7745 54.5145 36.027 54.5145 30.2795C54.5145 30.1283 54.5145 29.9392 54.5145 29.7502C52.7373 29.7502 51.0358 29.7502 49.2586 29.7502C49.2586 29.977 49.2586 30.1661 49.2586 30.393C49.2586 36.0648 49.2586 41.6988 49.2586 47.3707C49.2586 47.9001 49.2208 48.4673 49.1452 48.9966C48.9939 49.8663 48.5402 50.5091 47.6705 50.7738C46.0446 51.2654 44.7211 50.7738 43.7758 49.3747C43.549 48.9966 43.3221 48.6185 43.0574 48.2404C41.5827 49.1101 40.1837 49.9419 38.7468 50.8116Z" fill="white"/>
<path d="M9.40216 76.607V84.887C9.40216 85.403 9.33316 85.919 9.19516 86.435C9.06316 86.945 8.83516 87.41 8.51116 87.83C8.19316 88.244 7.76116 88.577 7.21516 88.829C6.66916 89.081 5.98816 89.207 5.17216 89.207C4.56616 89.207 3.96916 89.111 3.38116 88.919C2.79916 88.727 2.26216 88.448 1.77016 88.082L2.46316 87.047C3.00316 87.383 3.49516 87.611 3.93916 87.731C4.38316 87.845 4.78816 87.902 5.15416 87.902C6.01816 87.902 6.68116 87.626 7.14316 87.074C7.61116 86.522 7.84516 85.763 7.84516 84.797V77.885H4.17316V76.607H9.40216ZM19.3131 86.93C19.3131 87.308 19.3761 87.584 19.5021 87.758C19.6281 87.932 19.8231 88.061 20.0871 88.145L19.7181 89.207C19.3101 89.153 18.9531 89.024 18.6471 88.82C18.3411 88.61 18.1191 88.295 17.9811 87.875C17.6391 88.313 17.2131 88.646 16.7031 88.874C16.1931 89.096 15.6291 89.207 15.0111 89.207C14.0631 89.207 13.3161 88.94 12.7701 88.406C12.2241 87.872 11.9511 87.164 11.9511 86.282C11.9511 85.304 12.3321 84.554 13.0941 84.032C13.8561 83.51 14.9571 83.249 16.3971 83.249H17.7921V82.457C17.7921 81.773 17.5911 81.29 17.1891 81.008C16.7931 80.72 16.2411 80.576 15.5331 80.576C15.2211 80.576 14.8551 80.615 14.4351 80.693C14.0151 80.765 13.5591 80.888 13.0671 81.062L12.6711 79.919C13.2531 79.703 13.7991 79.55 14.3091 79.46C14.8191 79.37 15.3051 79.325 15.7671 79.325C16.9491 79.325 17.8341 79.601 18.4221 80.153C19.0161 80.699 19.3131 81.443 19.3131 82.385V86.93ZM15.3981 88.055C15.8661 88.055 16.3131 87.938 16.7391 87.704C17.1651 87.464 17.5161 87.134 17.7921 86.714V84.275H16.4241C15.3801 84.275 14.6421 84.455 14.2101 84.815C13.7841 85.175 13.5711 85.658 13.5711 86.264C13.5711 86.852 13.7211 87.299 14.0211 87.605C14.3271 87.905 14.7861 88.055 15.3981 88.055ZM30.6821 79.523L27.2351 89H25.4801L22.0601 79.523H23.6621L26.4071 87.623L29.1161 79.523H30.6821ZM39.8191 86.93C39.8191 87.308 39.8821 87.584 40.0081 87.758C40.1341 87.932 40.3291 88.061 40.5931 88.145L40.2241 89.207C39.8161 89.153 39.4591 89.024 39.1531 88.82C38.8471 88.61 38.6251 88.295 38.4871 87.875C38.1451 88.313 37.7191 88.646 37.2091 88.874C36.6991 89.096 36.1351 89.207 35.5171 89.207C34.5691 89.207 33.8221 88.94 33.2761 88.406C32.7301 87.872 32.4571 87.164 32.4571 86.282C32.4571 85.304 32.8381 84.554 33.6001 84.032C34.3621 83.51 35.4631 83.249 36.9031 83.249H38.2981V82.457C38.2981 81.773 38.0971 81.29 37.6951 81.008C37.2991 80.72 36.7471 80.576 36.0391 80.576C35.7271 80.576 35.3611 80.615 34.9411 80.693C34.5211 80.765 34.0651 80.888 33.5731 81.062L33.1771 79.919C33.7591 79.703 34.3051 79.55 34.8151 79.46C35.3251 79.37 35.8111 79.325 36.2731 79.325C37.4551 79.325 38.3401 79.601 38.9281 80.153C39.5221 80.699 39.8191 81.443 39.8191 82.385V86.93ZM35.9041 88.055C36.3721 88.055 36.8191 87.938 37.2451 87.704C37.6711 87.464 38.0221 87.134 38.2981 86.714V84.275H36.9301C35.8861 84.275 35.1481 84.455 34.7161 84.815C34.2901 85.175 34.0771 85.658 34.0771 86.264C34.0771 86.852 34.2271 87.299 34.5271 87.605C34.8331 87.905 35.2921 88.055 35.9041 88.055ZM51.134 85.571C51.134 86.279 50.957 86.909 50.603 87.461C50.249 88.007 49.736 88.436 49.064 88.748C48.392 89.054 47.573 89.207 46.607 89.207C45.701 89.207 44.879 89.069 44.141 88.793C43.409 88.517 42.782 88.127 42.26 87.623L43.187 86.579C43.619 86.981 44.114 87.302 44.672 87.542C45.23 87.776 45.884 87.893 46.634 87.893C47.138 87.893 47.609 87.812 48.047 87.65C48.485 87.482 48.839 87.23 49.109 86.894C49.379 86.552 49.514 86.12 49.514 85.598C49.514 85.196 49.436 84.854 49.28 84.572C49.124 84.29 48.848 84.041 48.452 83.825C48.056 83.603 47.504 83.387 46.796 83.177C45.98 82.937 45.272 82.667 44.672 82.367C44.078 82.061 43.616 81.686 43.286 81.242C42.962 80.798 42.8 80.249 42.8 79.595C42.8 78.977 42.971 78.428 43.313 77.948C43.655 77.468 44.126 77.093 44.726 76.823C45.332 76.547 46.028 76.409 46.814 76.409C47.672 76.409 48.416 76.532 49.046 76.778C49.682 77.018 50.258 77.366 50.774 77.822L49.856 78.839C49.412 78.443 48.935 78.158 48.425 77.984C47.915 77.804 47.396 77.714 46.868 77.714C46.418 77.714 46.004 77.783 45.626 77.921C45.254 78.053 44.954 78.254 44.726 78.524C44.504 78.788 44.393 79.127 44.393 79.541C44.393 79.895 44.489 80.201 44.681 80.459C44.873 80.717 45.197 80.954 45.653 81.17C46.109 81.38 46.73 81.602 47.516 81.836C48.158 82.022 48.752 82.256 49.298 82.538C49.85 82.814 50.294 83.192 50.63 83.672C50.966 84.146 51.134 84.779 51.134 85.571ZM57.823 87.902C58.297 87.902 58.738 87.824 59.146 87.668C59.56 87.512 59.941 87.314 60.289 87.074L61.027 88.064C60.613 88.418 60.115 88.697 59.533 88.901C58.951 89.105 58.381 89.207 57.823 89.207C56.881 89.207 56.077 89.006 55.411 88.604C54.751 88.196 54.247 87.626 53.899 86.894C53.551 86.156 53.377 85.292 53.377 84.302C53.377 83.354 53.551 82.505 53.899 81.755C54.253 80.999 54.76 80.405 55.42 79.973C56.086 79.541 56.893 79.325 57.841 79.325C58.447 79.325 59.014 79.418 59.542 79.604C60.076 79.784 60.565 80.057 61.009 80.423L60.271 81.431C59.869 81.149 59.464 80.939 59.056 80.801C58.654 80.657 58.243 80.585 57.823 80.585C57.007 80.585 56.335 80.891 55.807 81.503C55.279 82.115 55.015 83.048 55.015 84.302C55.015 85.142 55.135 85.829 55.375 86.363C55.621 86.891 55.954 87.281 56.374 87.533C56.8 87.779 57.283 87.902 57.823 87.902ZM63.882 89V87.839H65.358V80.684H63.882V79.523H66.51L66.789 81.764C67.155 80.984 67.599 80.381 68.121 79.955C68.643 79.529 69.333 79.316 70.191 79.316C70.455 79.316 70.689 79.337 70.893 79.379C71.103 79.415 71.316 79.463 71.532 79.523L71.091 80.873C70.893 80.819 70.713 80.78 70.551 80.756C70.389 80.726 70.203 80.711 69.993 80.711C69.267 80.711 68.643 80.969 68.121 81.485C67.599 82.001 67.182 82.781 66.87 83.825V87.839H68.796V89H63.882ZM70.074 82.727V80.666L70.227 79.523H71.532L71.316 82.727H70.074ZM78.8419 79.523V87.803H81.5149V89H74.4049V87.803H77.3299V80.72H74.4949V79.523H78.8419ZM77.6359 75.086C77.9719 75.086 78.2389 75.188 78.4369 75.392C78.6409 75.596 78.7429 75.845 78.7429 76.139C78.7429 76.445 78.6409 76.703 78.4369 76.913C78.2389 77.117 77.9719 77.219 77.6359 77.219C77.3179 77.219 77.0569 77.117 76.8529 76.913C76.6489 76.703 76.5469 76.445 76.5469 76.139C76.5469 75.845 76.6489 75.596 76.8529 75.392C77.0569 75.188 77.3179 75.086 77.6359 75.086ZM88.5369 79.325C89.3769 79.325 90.0459 79.529 90.5439 79.937C91.0479 80.345 91.4109 80.921 91.6329 81.665C91.8549 82.403 91.9659 83.267 91.9659 84.257C91.9659 85.211 91.8309 86.063 91.5609 86.813C91.2969 87.557 90.8949 88.142 90.3549 88.568C89.8149 88.994 89.1339 89.207 88.3119 89.207C87.2739 89.207 86.4399 88.841 85.8099 88.109V92.627L84.2979 92.816V79.523H85.5849L85.7109 80.846C86.0589 80.36 86.4729 79.985 86.9529 79.721C87.4389 79.457 87.9669 79.325 88.5369 79.325ZM88.1769 80.54C87.6549 80.54 87.1929 80.699 86.7909 81.017C86.3949 81.329 86.0679 81.677 85.8099 82.061V86.759C86.0559 87.125 86.3649 87.416 86.7369 87.632C87.1149 87.842 87.5289 87.947 87.9789 87.947C88.7649 87.947 89.3559 87.647 89.7519 87.047C90.1479 86.447 90.3459 85.514 90.3459 84.248C90.3459 83.42 90.2679 82.733 90.1119 82.187C89.9559 81.635 89.7189 81.224 89.4009 80.954C89.0829 80.678 88.6749 80.54 88.1769 80.54ZM102.075 88.523C101.751 88.739 101.358 88.907 100.896 89.027C100.434 89.147 99.9809 89.207 99.5369 89.207C98.5169 89.207 97.7309 88.94 97.1789 88.406C96.6269 87.872 96.3509 87.185 96.3509 86.345V80.693H94.1729V79.523H96.3509V77.372L97.8629 77.192V79.523H101.139L100.959 80.693H97.8629V86.327C97.8629 86.855 98.0009 87.257 98.2769 87.533C98.5589 87.809 99.0239 87.947 99.6719 87.947C100.026 87.947 100.353 87.905 100.653 87.821C100.953 87.737 101.232 87.629 101.49 87.497L102.075 88.523Z" fill="white"/>
</svg>
