<svg width="40" height="40" viewBox="0 0 40 40" fill="none" xmlns="http://www.w3.org/2000/svg">
<mask id="mask0_66019_1072" style="mask-type:alpha" maskUnits="userSpaceOnUse" x="0" y="4" width="32" height="32">
<rect y="4" width="32" height="32" fill="#D9D9D9"/>
</mask>
<g mask="url(#mask0_66019_1072)">
<path d="M22.7717 20.6667H7.33341C7.14364 20.6667 6.98508 20.603 6.85775 20.4757C6.73041 20.3483 6.66675 20.1898 6.66675 20C6.66675 19.8102 6.73041 19.6517 6.85775 19.5243C6.98508 19.397 7.14364 19.3333 7.33341 19.3333H22.7717L15.5207 12.082C15.3907 11.9522 15.3227 11.7992 15.3167 11.623C15.3107 11.447 15.3813 11.2854 15.5284 11.1383C15.6753 10.9965 15.8325 10.9243 16.0001 10.9217C16.1676 10.9192 16.3249 10.9914 16.4717 11.1383L24.5794 19.246C24.6959 19.3624 24.7775 19.4813 24.8244 19.6027C24.8715 19.724 24.8951 19.8564 24.8951 20C24.8951 20.1435 24.8715 20.276 24.8244 20.3973C24.7775 20.5187 24.6959 20.6375 24.5794 20.754L16.4717 28.8617C16.3471 28.9863 16.1954 29.053 16.0167 29.0617C15.8381 29.0701 15.6753 29.0034 15.5284 28.8617C15.3813 28.7146 15.3077 28.556 15.3077 28.386C15.3077 28.2158 15.3813 28.0572 15.5284 27.9103L22.7717 20.6667Z" fill="#3DCFB6"/>
</g>
</svg>
