<svg width="104" height="116" viewBox="0 0 104 116" fill="none" xmlns="http://www.w3.org/2000/svg">
<path d="M27.0044 4.00987C27.0044 4.22696 26.9945 4.37497 27.0044 4.52299C27.3797 8.62797 27.755 12.7329 28.1204 16.8478C28.6339 22.6698 29.1376 28.4917 29.6512 34.3038C30.2339 40.8362 30.8264 47.3588 31.3894 53.8913C31.4289 54.3649 31.5968 54.5721 32.0412 54.6905C38.3619 56.4273 44.6628 58.1739 50.9835 59.9007C51.4082 60.0191 51.9217 60.0388 52.3464 59.9204C58.6868 58.1837 65.0174 56.4174 71.3578 54.6708C71.8418 54.5327 72.0096 54.3156 72.0491 53.8222C72.2467 51.3553 72.4837 48.8785 72.701 46.4115C73.0664 42.3263 73.4219 38.241 73.7873 34.1558C74.212 29.3601 74.6466 24.5742 75.0712 19.7785C75.3873 16.2064 75.723 12.6441 76.0391 9.07201C76.1872 7.3945 76.3156 5.71699 76.4539 4H27.0044V4.00987ZM66.9136 18.2589C66.5877 21.8705 66.2618 25.4919 65.9359 29.1035C65.5606 33.2578 65.1853 37.4121 64.81 41.5566C64.7014 42.7506 64.5433 43.9446 64.5137 45.1484C64.494 45.7898 64.2174 45.9576 63.6841 46.1056C59.872 47.1319 56.0697 48.1877 52.2674 49.2337C52.0995 49.283 51.9415 49.3422 51.7736 49.3916C51.7143 49.362 51.6551 49.3422 51.5859 49.3126C47.517 48.2074 43.448 47.0924 39.3791 45.9675C39.2112 45.9181 38.9939 45.6517 38.9742 45.4642C38.6878 42.3855 38.431 39.3067 38.1545 36.1688H44.3665C44.4752 37.4023 44.5937 38.6555 44.6924 39.9185C44.7813 41.0829 44.7714 41.0829 45.8677 41.379C47.833 41.902 49.8082 42.4151 51.7736 42.9282L51.7538 42.8789C53.9068 42.3065 56.0598 41.7441 58.2128 41.1323C58.4103 41.0731 58.6374 40.7573 58.6671 40.5402C58.7955 39.5929 58.8646 38.6357 58.9436 37.6884C59.072 36.1589 59.2004 34.6294 59.3386 33.0309H51.7538L51.7736 32.9914C51.7242 32.9914 51.6649 32.9914 51.6156 32.9914H37.8681C37.6804 30.9488 37.5027 28.9259 37.315 26.8438H51.6254C51.6748 26.8438 51.7341 26.8438 51.7835 26.8438L51.7637 26.8043H59.8917C60.0793 24.6828 60.267 22.6105 60.4546 20.4988H51.7538L51.7736 20.4594C51.7242 20.4594 51.6649 20.4594 51.6156 20.4594C46.7467 20.4692 41.8778 20.4692 37.0088 20.4791C36.9397 20.4791 36.8706 20.4495 36.7422 20.41C36.5644 18.397 36.3768 16.384 36.199 14.3118H51.6156C51.6649 14.3118 51.7242 14.3118 51.7736 14.3118L51.7538 14.2723H67.2395C67.1309 15.6538 67.0222 16.9563 66.9136 18.2589Z" fill="white"/>
<path d="M42.7945 76.409C43.6045 76.409 44.2825 76.511 44.8285 76.715C45.3745 76.919 45.8935 77.219 46.3855 77.615L45.5125 78.632C45.1225 78.302 44.7085 78.068 44.2705 77.93C43.8385 77.786 43.3855 77.714 42.9115 77.714C42.2335 77.714 41.6065 77.876 41.0305 78.2C40.4545 78.518 39.9895 79.049 39.6355 79.793C39.2875 80.531 39.1135 81.533 39.1135 82.799C39.1135 84.029 39.2785 85.016 39.6085 85.76C39.9445 86.504 40.3975 87.041 40.9675 87.371C41.5375 87.701 42.1735 87.866 42.8755 87.866C43.5715 87.866 44.1415 87.761 44.5855 87.551C45.0355 87.341 45.4255 87.101 45.7555 86.831L46.5655 87.857C46.1875 88.223 45.6955 88.541 45.0895 88.811C44.4835 89.075 43.7395 89.207 42.8575 89.207C41.8555 89.207 40.9465 88.961 40.1305 88.469C39.3205 87.977 38.6785 87.257 38.2045 86.309C37.7305 85.355 37.4935 84.185 37.4935 82.799C37.4935 81.407 37.7335 80.237 38.2135 79.289C38.6995 78.341 39.3445 77.624 40.1485 77.138C40.9585 76.652 41.8405 76.409 42.7945 76.409ZM56.2605 85.571C56.2605 86.279 56.0835 86.909 55.7295 87.461C55.3755 88.007 54.8625 88.436 54.1905 88.748C53.5185 89.054 52.6995 89.207 51.7335 89.207C50.8275 89.207 50.0055 89.069 49.2675 88.793C48.5355 88.517 47.9085 88.127 47.3865 87.623L48.3135 86.579C48.7455 86.981 49.2405 87.302 49.7985 87.542C50.3565 87.776 51.0105 87.893 51.7605 87.893C52.2645 87.893 52.7355 87.812 53.1735 87.65C53.6115 87.482 53.9655 87.23 54.2355 86.894C54.5055 86.552 54.6405 86.12 54.6405 85.598C54.6405 85.196 54.5625 84.854 54.4065 84.572C54.2505 84.29 53.9745 84.041 53.5785 83.825C53.1825 83.603 52.6305 83.387 51.9225 83.177C51.1065 82.937 50.3985 82.667 49.7985 82.367C49.2045 82.061 48.7425 81.686 48.4125 81.242C48.0885 80.798 47.9265 80.249 47.9265 79.595C47.9265 78.977 48.0975 78.428 48.4395 77.948C48.7815 77.468 49.2525 77.093 49.8525 76.823C50.4585 76.547 51.1545 76.409 51.9405 76.409C52.7985 76.409 53.5425 76.532 54.1725 76.778C54.8085 77.018 55.3845 77.366 55.9005 77.822L54.9825 78.839C54.5385 78.443 54.0615 78.158 53.5515 77.984C53.0415 77.804 52.5225 77.714 51.9945 77.714C51.5445 77.714 51.1305 77.783 50.7525 77.921C50.3805 78.053 50.0805 78.254 49.8525 78.524C49.6305 78.788 49.5195 79.127 49.5195 79.541C49.5195 79.895 49.6155 80.201 49.8075 80.459C49.9995 80.717 50.3235 80.954 50.7795 81.17C51.2355 81.38 51.8565 81.602 52.6425 81.836C53.2845 82.022 53.8785 82.256 54.4245 82.538C54.9765 82.814 55.4205 83.192 55.7565 83.672C56.0925 84.146 56.2605 84.779 56.2605 85.571ZM66.5135 85.571C66.5135 86.279 66.3365 86.909 65.9825 87.461C65.6285 88.007 65.1155 88.436 64.4435 88.748C63.7715 89.054 62.9525 89.207 61.9865 89.207C61.0805 89.207 60.2585 89.069 59.5205 88.793C58.7885 88.517 58.1615 88.127 57.6395 87.623L58.5665 86.579C58.9985 86.981 59.4935 87.302 60.0515 87.542C60.6095 87.776 61.2635 87.893 62.0135 87.893C62.5175 87.893 62.9885 87.812 63.4265 87.65C63.8645 87.482 64.2185 87.23 64.4885 86.894C64.7585 86.552 64.8935 86.12 64.8935 85.598C64.8935 85.196 64.8155 84.854 64.6595 84.572C64.5035 84.29 64.2275 84.041 63.8315 83.825C63.4355 83.603 62.8835 83.387 62.1755 83.177C61.3595 82.937 60.6515 82.667 60.0515 82.367C59.4575 82.061 58.9955 81.686 58.6655 81.242C58.3415 80.798 58.1795 80.249 58.1795 79.595C58.1795 78.977 58.3505 78.428 58.6925 77.948C59.0345 77.468 59.5055 77.093 60.1055 76.823C60.7115 76.547 61.4075 76.409 62.1935 76.409C63.0515 76.409 63.7955 76.532 64.4255 76.778C65.0615 77.018 65.6375 77.366 66.1535 77.822L65.2355 78.839C64.7915 78.443 64.3145 78.158 63.8045 77.984C63.2945 77.804 62.7755 77.714 62.2475 77.714C61.7975 77.714 61.3835 77.783 61.0055 77.921C60.6335 78.053 60.3335 78.254 60.1055 78.524C59.8835 78.788 59.7725 79.127 59.7725 79.541C59.7725 79.895 59.8685 80.201 60.0605 80.459C60.2525 80.717 60.5765 80.954 61.0325 81.17C61.4885 81.38 62.1095 81.602 62.8955 81.836C63.5375 82.022 64.1315 82.256 64.6775 82.538C65.2295 82.814 65.6735 83.192 66.0095 83.672C66.3455 84.146 66.5135 84.779 66.5135 85.571Z" fill="white"/>
</svg>
