<svg width="104" height="116" viewBox="0 0 104 116" fill="none" xmlns="http://www.w3.org/2000/svg">
<path d="M52.04 4L78.08 13.296L74.1096 47.764L52.04 60L29.9704 47.764L26 13.296L52.04 4ZM52.04 10.188L35.7608 46.728H41.8312L45.1044 38.552H58.9196L62.1956 46.728H68.2632L52.04 10.188ZM56.7944 33.512H47.2856L52.04 22.06L56.7944 33.512Z" fill="white"/>
<path d="M22.0276 85.841H17.1226L16.1326 89H14.5936L18.6256 76.607H20.6236L24.6556 89H23.0176L22.0276 85.841ZM17.5276 84.545H21.6226L19.5886 77.921L17.5276 84.545ZM26.8266 89V79.523H28.1136L28.2306 80.837C28.6146 80.351 29.0946 79.979 29.6706 79.721C30.2526 79.457 30.8166 79.325 31.3626 79.325C32.2926 79.325 32.9676 79.571 33.3876 80.063C33.8136 80.555 34.0266 81.239 34.0266 82.115V89H32.5146V83.231C32.5146 82.583 32.4786 82.061 32.4066 81.665C32.3346 81.263 32.1846 80.972 31.9566 80.792C31.7286 80.606 31.3746 80.513 30.8946 80.513C30.5226 80.513 30.1716 80.594 29.8416 80.756C29.5176 80.918 29.2266 81.122 28.9686 81.368C28.7166 81.608 28.5066 81.851 28.3386 82.097V89H26.8266ZM45.3235 78.515L45.7915 79.937C45.3895 80.063 44.9605 80.141 44.5045 80.171C44.0485 80.201 43.5535 80.216 43.0195 80.216C43.5655 80.468 43.9765 80.795 44.2525 81.197C44.5285 81.593 44.6665 82.061 44.6665 82.601C44.6665 83.225 44.5255 83.78 44.2435 84.266C43.9615 84.752 43.5535 85.133 43.0195 85.409C42.4915 85.685 41.8525 85.823 41.1025 85.823C40.7845 85.823 40.5175 85.808 40.3015 85.778C40.0915 85.748 39.8875 85.703 39.6895 85.643C39.5455 85.739 39.4255 85.871 39.3295 86.039C39.2395 86.207 39.1945 86.381 39.1945 86.561C39.1945 86.789 39.2845 86.978 39.4645 87.128C39.6445 87.278 39.9775 87.353 40.4635 87.353H42.1735C42.8095 87.353 43.3795 87.467 43.8835 87.695C44.3935 87.923 44.7925 88.229 45.0805 88.613C45.3745 88.997 45.5215 89.435 45.5215 89.927C45.5215 90.857 45.1255 91.571 44.3335 92.069C43.5475 92.567 42.4345 92.816 40.9945 92.816C39.9865 92.816 39.1915 92.711 38.6095 92.501C38.0275 92.297 37.6105 91.982 37.3585 91.556C37.1125 91.136 36.9895 90.605 36.9895 89.963H38.3575C38.3575 90.329 38.4295 90.632 38.5735 90.872C38.7175 91.112 38.9785 91.289 39.3565 91.403C39.7345 91.523 40.2775 91.583 40.9855 91.583C41.6815 91.583 42.2485 91.523 42.6865 91.403C43.1305 91.289 43.4575 91.115 43.6675 90.881C43.8835 90.653 43.9915 90.368 43.9915 90.026C43.9915 89.576 43.7875 89.237 43.3795 89.009C42.9715 88.781 42.4615 88.667 41.8495 88.667H40.1575C39.3415 88.667 38.7385 88.487 38.3485 88.127C37.9645 87.767 37.7725 87.353 37.7725 86.885C37.7725 86.579 37.8595 86.282 38.0335 85.994C38.2135 85.706 38.4745 85.451 38.8165 85.229C38.2705 84.941 37.8685 84.584 37.6105 84.158C37.3525 83.732 37.2235 83.216 37.2235 82.61C37.2235 81.968 37.3825 81.401 37.7005 80.909C38.0185 80.411 38.4625 80.021 39.0325 79.739C39.6025 79.457 40.2595 79.316 41.0035 79.316C41.8015 79.31 42.4495 79.277 42.9475 79.217C43.4455 79.151 43.8715 79.058 44.2255 78.938C44.5855 78.818 44.9515 78.677 45.3235 78.515ZM41.0035 80.423C40.2415 80.423 39.6775 80.63 39.3115 81.044C38.9515 81.452 38.7715 81.974 38.7715 82.61C38.7715 83.252 38.9575 83.78 39.3295 84.194C39.7015 84.608 40.2715 84.815 41.0395 84.815C41.7115 84.815 42.2215 84.62 42.5695 84.23C42.9235 83.84 43.1005 83.297 43.1005 82.601C43.1005 81.887 42.9235 81.347 42.5695 80.981C42.2215 80.609 41.6995 80.423 41.0035 80.423ZM49.9245 79.523V86.237C49.9245 86.861 50.0535 87.311 50.3115 87.587C50.5695 87.863 50.9715 88.001 51.5175 88.001C52.0395 88.001 52.5315 87.854 52.9935 87.56C53.4615 87.26 53.8245 86.906 54.0825 86.498V79.523H55.5945V89H54.3075L54.1815 87.722C53.8095 88.202 53.3505 88.571 52.8045 88.829C52.2585 89.081 51.7065 89.207 51.1485 89.207C50.2305 89.207 49.5435 88.964 49.0875 88.478C48.6375 87.986 48.4125 87.299 48.4125 86.417V79.523H49.9245ZM62.8955 75.707V86.66C62.8955 87.128 63.0395 87.461 63.3275 87.659C63.6215 87.851 63.9995 87.947 64.4615 87.947C64.7495 87.947 65.0225 87.917 65.2805 87.857C65.5385 87.797 65.7965 87.716 66.0545 87.614L66.4595 88.721C66.2015 88.847 65.8805 88.958 65.4965 89.054C65.1185 89.156 64.6895 89.207 64.2095 89.207C63.3695 89.207 62.6885 88.976 62.1665 88.514C61.6445 88.046 61.3835 87.401 61.3835 86.579V76.904H58.4765V75.707H62.8955ZM76.7845 86.93C76.7845 87.308 76.8475 87.584 76.9735 87.758C77.0995 87.932 77.2945 88.061 77.5585 88.145L77.1895 89.207C76.7815 89.153 76.4245 89.024 76.1185 88.82C75.8125 88.61 75.5905 88.295 75.4525 87.875C75.1105 88.313 74.6845 88.646 74.1745 88.874C73.6645 89.096 73.1005 89.207 72.4825 89.207C71.5345 89.207 70.7875 88.94 70.2415 88.406C69.6955 87.872 69.4225 87.164 69.4225 86.282C69.4225 85.304 69.8035 84.554 70.5655 84.032C71.3275 83.51 72.4285 83.249 73.8685 83.249H75.2635V82.457C75.2635 81.773 75.0625 81.29 74.6605 81.008C74.2645 80.72 73.7125 80.576 73.0045 80.576C72.6925 80.576 72.3265 80.615 71.9065 80.693C71.4865 80.765 71.0305 80.888 70.5385 81.062L70.1425 79.919C70.7245 79.703 71.2705 79.55 71.7805 79.46C72.2905 79.37 72.7765 79.325 73.2385 79.325C74.4205 79.325 75.3055 79.601 75.8935 80.153C76.4875 80.699 76.7845 81.443 76.7845 82.385V86.93ZM72.8695 88.055C73.3375 88.055 73.7845 87.938 74.2105 87.704C74.6365 87.464 74.9875 87.134 75.2635 86.714V84.275H73.8955C72.8515 84.275 72.1135 84.455 71.6815 84.815C71.2555 85.175 71.0425 85.658 71.0425 86.264C71.0425 86.852 71.1925 87.299 71.4925 87.605C71.7985 87.905 72.2575 88.055 72.8695 88.055ZM80.8814 89V87.839H82.3574V80.684H80.8814V79.523H83.5094L83.7884 81.764C84.1544 80.984 84.5984 80.381 85.1204 79.955C85.6424 79.529 86.3324 79.316 87.1904 79.316C87.4544 79.316 87.6884 79.337 87.8924 79.379C88.1024 79.415 88.3154 79.463 88.5314 79.523L88.0904 80.873C87.8924 80.819 87.7124 80.78 87.5504 80.756C87.3884 80.726 87.2024 80.711 86.9924 80.711C86.2664 80.711 85.6424 80.969 85.1204 81.485C84.5984 82.001 84.1814 82.781 83.8694 83.825V87.839H85.7954V89H80.8814ZM87.0734 82.727V80.666L87.2264 79.523H88.5314L88.3154 82.727H87.0734Z" fill="white"/>
</svg>
