<svg width="107" height="116" viewBox="0 0 107 116" fill="none" xmlns="http://www.w3.org/2000/svg">
<path d="M81.8981 8.45657C81.4907 6.31742 79.8354 4.58572 77.7217 4.12733C77.6198 4.10186 77.518 4.10186 77.3906 4.0764C77.3652 4.0764 77.3397 4.02547 77.3142 4H30.6094C30.5839 4.02547 30.5584 4.0764 30.5075 4.0764C28.3938 4.43292 26.6112 6.11369 26.1273 8.25284C26.1019 8.32924 26.0509 8.4311 26 8.53297V55.3652C26.0255 55.4161 26.0764 55.4416 26.0764 55.4925C26.5857 57.8354 28.0118 59.2869 30.3292 59.8727C30.4056 59.8981 30.4566 59.9491 30.5075 60H77.3906C77.4416 59.9745 77.467 59.9236 77.518 59.8981C79.8354 59.3633 81.2615 57.9627 81.8472 55.6453C81.8727 55.5689 81.8472 55.467 81.8727 55.3906C81.8727 55.3652 81.9236 55.3397 81.9491 55.3142V8.60937C81.9491 8.55844 81.8981 8.53297 81.8981 8.45657ZM58.4693 35.0432H58.1892C56.0755 35.0432 53.9363 35.0432 51.8226 35.0432C51.7208 35.0432 51.6189 35.0432 51.5171 35.0432C51.5171 35.0687 51.4916 35.0687 51.4916 35.0941C51.4916 35.196 51.4916 35.2979 51.4916 35.3997V55.0341H45.9145V35.0687H38.9113V30.6121H58.4438V35.0432H58.4693ZM77.2633 48.362C77.2124 49.2278 77.085 50.0682 76.7285 50.8831C76.6267 51.1378 76.5503 51.367 76.4229 51.6216C75.9645 52.5894 75.2006 53.2769 74.3092 53.8372C73.2906 54.4739 72.1701 54.8304 70.9986 55.0596C69.6999 55.3142 68.4011 55.3906 67.0769 55.3397C66.4402 55.3142 65.8036 55.3142 65.1669 55.2378C63.6644 55.0596 62.1874 54.7285 60.8122 54.0664C60.7358 54.0409 60.6339 53.9136 60.6339 53.8372C60.6339 52.1819 60.6339 50.5266 60.6339 48.8713C60.6339 48.8458 60.6339 48.8204 60.6339 48.7694C61.0414 49.0496 61.4488 49.3297 61.8563 49.5589C62.8495 50.1446 63.9445 50.5521 65.065 50.8067C66.0327 51.0359 67.0005 51.0614 67.9682 51.0105C68.7067 50.985 69.4452 50.8067 70.1073 50.4757C70.693 50.1701 71.1769 49.7626 71.3042 49.075C71.4316 48.4638 71.3806 47.8527 71.0241 47.3179C70.5148 46.5539 69.8017 46.07 69.0123 45.6626C68.121 45.2296 67.2297 44.8477 66.3129 44.4402C64.9632 43.829 63.6389 43.1669 62.5439 42.1483C61.6526 41.3079 60.9905 40.3147 60.6849 39.1178C60.5066 38.4047 60.4557 37.6917 60.4811 36.9786C60.5066 35.2215 61.1432 33.719 62.3911 32.4711C63.4097 31.4525 64.6576 30.8413 66.0327 30.4848C66.975 30.2556 67.9172 30.0773 68.8849 30.0518C69.5725 30.0518 70.2601 29.9754 70.9222 30.0009C71.9664 30.0264 72.985 30.0773 74.0036 30.332C74.6658 30.5102 75.3533 30.6885 76.0155 30.8413C76.1428 30.8668 76.1937 30.9432 76.1937 31.096C76.1937 32.6749 76.1937 34.2792 76.1937 35.8581C76.1937 35.909 76.1937 35.96 76.1683 36.0364C75.9645 35.909 75.7863 35.8072 75.608 35.7053C74.7931 35.2469 73.9272 34.9413 73.0359 34.7121C72.0428 34.4829 71.0496 34.3301 70.0309 34.3556C69.3433 34.3811 68.6303 34.4829 67.9936 34.7121C67.2042 34.9923 66.5675 35.4507 66.2874 36.291C66.0582 36.9532 66.2365 37.5134 66.6439 38.0482C67.1533 38.7103 67.8408 39.1687 68.5794 39.5252C69.5725 40.0091 70.5912 40.4166 71.5589 40.8749C72.6794 41.4097 73.7999 41.9445 74.7422 42.734C75.5571 43.4216 76.2956 44.1855 76.7031 45.2042C76.9322 45.8154 77.136 46.452 77.136 47.1396C77.2378 47.5471 77.2888 47.9545 77.2633 48.362Z" fill="white"/>
<path d="M6.18216 77.948V89H4.62516V77.948H0.755156V76.607H10.1062L9.94416 77.948H6.18216ZM20.5211 79.523L17.1911 89.063C16.9691 89.705 16.6871 90.293 16.3451 90.827C16.0091 91.361 15.5681 91.802 15.0221 92.15C14.4821 92.504 13.7951 92.723 12.9611 92.807L12.7271 91.601C13.3811 91.493 13.8971 91.328 14.2751 91.106C14.6531 90.884 14.9501 90.599 15.1661 90.251C15.3881 89.903 15.5831 89.486 15.7511 89H15.2471L11.9351 79.523H13.5551L16.2731 87.848L18.9551 79.523H20.5211ZM27.6691 79.325C28.5091 79.325 29.1781 79.529 29.6761 79.937C30.1801 80.345 30.5431 80.921 30.7651 81.665C30.9871 82.403 31.0981 83.267 31.0981 84.257C31.0981 85.211 30.9631 86.063 30.6931 86.813C30.4291 87.557 30.0271 88.142 29.4871 88.568C28.9471 88.994 28.2661 89.207 27.4441 89.207C26.4061 89.207 25.5721 88.841 24.9421 88.109V92.627L23.4301 92.816V79.523H24.7171L24.8431 80.846C25.1911 80.36 25.6051 79.985 26.0851 79.721C26.5711 79.457 27.0991 79.325 27.6691 79.325ZM27.3091 80.54C26.7871 80.54 26.3251 80.699 25.9231 81.017C25.5271 81.329 25.2001 81.677 24.9421 82.061V86.759C25.1881 87.125 25.4971 87.416 25.8691 87.632C26.2471 87.842 26.6611 87.947 27.1111 87.947C27.8971 87.947 28.4881 87.647 28.8841 87.047C29.2801 86.447 29.4781 85.514 29.4781 84.248C29.4781 83.42 29.4001 82.733 29.2441 82.187C29.0881 81.635 28.8511 81.224 28.5331 80.954C28.2151 80.678 27.8071 80.54 27.3091 80.54ZM35.4111 84.797C35.4411 85.529 35.5821 86.129 35.8341 86.597C36.0861 87.059 36.4191 87.401 36.8331 87.623C37.2471 87.839 37.6971 87.947 38.1831 87.947C38.6691 87.947 39.1071 87.875 39.4971 87.731C39.8931 87.587 40.2981 87.374 40.7121 87.092L41.4231 88.091C40.9791 88.439 40.4721 88.712 39.9021 88.91C39.3381 89.108 38.7591 89.207 38.1651 89.207C37.2471 89.207 36.4641 89 35.8161 88.586C35.1681 88.172 34.6731 87.596 34.3311 86.858C33.9951 86.114 33.8271 85.253 33.8271 84.275C33.8271 83.315 33.9981 82.463 34.3401 81.719C34.6821 80.975 35.1621 80.39 35.7801 79.964C36.3981 79.538 37.1271 79.325 37.9671 79.325C38.7651 79.325 39.4521 79.514 40.0281 79.892C40.6041 80.264 41.0451 80.798 41.3511 81.494C41.6631 82.184 41.8191 83.009 41.8191 83.969C41.8191 84.131 41.8161 84.284 41.8101 84.428C41.8041 84.566 41.7951 84.689 41.7831 84.797H35.4111ZM37.9851 80.567C37.2831 80.567 36.6951 80.816 36.2211 81.314C35.7531 81.812 35.4861 82.583 35.4201 83.627H40.3611C40.3431 82.613 40.1211 81.851 39.6951 81.341C39.2691 80.825 38.6991 80.567 37.9851 80.567ZM52.864 85.571C52.864 86.279 52.687 86.909 52.333 87.461C51.979 88.007 51.466 88.436 50.794 88.748C50.122 89.054 49.303 89.207 48.337 89.207C47.431 89.207 46.609 89.069 45.871 88.793C45.139 88.517 44.512 88.127 43.99 87.623L44.917 86.579C45.349 86.981 45.844 87.302 46.402 87.542C46.96 87.776 47.614 87.893 48.364 87.893C48.868 87.893 49.339 87.812 49.777 87.65C50.215 87.482 50.569 87.23 50.839 86.894C51.109 86.552 51.244 86.12 51.244 85.598C51.244 85.196 51.166 84.854 51.01 84.572C50.854 84.29 50.578 84.041 50.182 83.825C49.786 83.603 49.234 83.387 48.526 83.177C47.71 82.937 47.002 82.667 46.402 82.367C45.808 82.061 45.346 81.686 45.016 81.242C44.692 80.798 44.53 80.249 44.53 79.595C44.53 78.977 44.701 78.428 45.043 77.948C45.385 77.468 45.856 77.093 46.456 76.823C47.062 76.547 47.758 76.409 48.544 76.409C49.402 76.409 50.146 76.532 50.776 76.778C51.412 77.018 51.988 77.366 52.504 77.822L51.586 78.839C51.142 78.443 50.665 78.158 50.155 77.984C49.645 77.804 49.126 77.714 48.598 77.714C48.148 77.714 47.734 77.783 47.356 77.921C46.984 78.053 46.684 78.254 46.456 78.524C46.234 78.788 46.123 79.127 46.123 79.541C46.123 79.895 46.219 80.201 46.411 80.459C46.603 80.717 46.927 80.954 47.383 81.17C47.839 81.38 48.46 81.602 49.246 81.836C49.888 82.022 50.482 82.256 51.028 82.538C51.58 82.814 52.024 83.192 52.36 83.672C52.696 84.146 52.864 84.779 52.864 85.571ZM60.093 87.902C60.567 87.902 61.008 87.824 61.416 87.668C61.83 87.512 62.211 87.314 62.559 87.074L63.297 88.064C62.883 88.418 62.385 88.697 61.803 88.901C61.221 89.105 60.651 89.207 60.093 89.207C59.151 89.207 58.347 89.006 57.681 88.604C57.021 88.196 56.517 87.626 56.169 86.894C55.821 86.156 55.647 85.292 55.647 84.302C55.647 83.354 55.821 82.505 56.169 81.755C56.523 80.999 57.03 80.405 57.69 79.973C58.356 79.541 59.163 79.325 60.111 79.325C60.717 79.325 61.284 79.418 61.812 79.604C62.346 79.784 62.835 80.057 63.279 80.423L62.541 81.431C62.139 81.149 61.734 80.939 61.326 80.801C60.924 80.657 60.513 80.585 60.093 80.585C59.277 80.585 58.605 80.891 58.077 81.503C57.549 82.115 57.285 83.048 57.285 84.302C57.285 85.142 57.405 85.829 57.645 86.363C57.891 86.891 58.224 87.281 58.644 87.533C59.07 87.779 59.553 87.902 60.093 87.902ZM66.692 89V87.839H68.168V80.684H66.692V79.523H69.32L69.599 81.764C69.965 80.984 70.409 80.381 70.931 79.955C71.453 79.529 72.143 79.316 73.001 79.316C73.265 79.316 73.499 79.337 73.703 79.379C73.913 79.415 74.126 79.463 74.342 79.523L73.901 80.873C73.703 80.819 73.523 80.78 73.361 80.756C73.199 80.726 73.013 80.711 72.803 80.711C72.077 80.711 71.453 80.969 70.931 81.485C70.409 82.001 69.992 82.781 69.68 83.825V87.839H71.606V89H66.692ZM72.884 82.727V80.666L73.037 79.523H74.342L74.126 82.727H72.884ZM82.1919 79.523V87.803H84.8649V89H77.7549V87.803H80.6799V80.72H77.8449V79.523H82.1919ZM80.9859 75.086C81.3219 75.086 81.5889 75.188 81.7869 75.392C81.9909 75.596 82.0929 75.845 82.0929 76.139C82.0929 76.445 81.9909 76.703 81.7869 76.913C81.5889 77.117 81.3219 77.219 80.9859 77.219C80.6679 77.219 80.4069 77.117 80.2029 76.913C79.9989 76.703 79.8969 76.445 79.8969 76.139C79.8969 75.845 79.9989 75.596 80.2029 75.392C80.4069 75.188 80.6679 75.086 80.9859 75.086ZM92.4269 79.325C93.2669 79.325 93.9359 79.529 94.4339 79.937C94.9379 80.345 95.3009 80.921 95.5229 81.665C95.7449 82.403 95.8559 83.267 95.8559 84.257C95.8559 85.211 95.7209 86.063 95.4509 86.813C95.1869 87.557 94.7849 88.142 94.2449 88.568C93.7049 88.994 93.0239 89.207 92.2019 89.207C91.1639 89.207 90.3299 88.841 89.6999 88.109V92.627L88.1879 92.816V79.523H89.4749L89.6009 80.846C89.9489 80.36 90.3629 79.985 90.8429 79.721C91.3289 79.457 91.8569 79.325 92.4269 79.325ZM92.0669 80.54C91.5449 80.54 91.0829 80.699 90.6809 81.017C90.2849 81.329 89.9579 81.677 89.6999 82.061V86.759C89.9459 87.125 90.2549 87.416 90.6269 87.632C91.0049 87.842 91.4189 87.947 91.8689 87.947C92.6549 87.947 93.2459 87.647 93.6419 87.047C94.0379 86.447 94.2359 85.514 94.2359 84.248C94.2359 83.42 94.1579 82.733 94.0019 82.187C93.8459 81.635 93.6089 81.224 93.2909 80.954C92.9729 80.678 92.5649 80.54 92.0669 80.54ZM106.505 88.523C106.181 88.739 105.788 88.907 105.326 89.027C104.864 89.147 104.411 89.207 103.967 89.207C102.947 89.207 102.161 88.94 101.609 88.406C101.057 87.872 100.781 87.185 100.781 86.345V80.693H98.6029V79.523H100.781V77.372L102.293 77.192V79.523H105.569L105.389 80.693H102.293V86.327C102.293 86.855 102.431 87.257 102.707 87.533C102.989 87.809 103.454 87.947 104.102 87.947C104.456 87.947 104.783 87.905 105.083 87.821C105.383 87.737 105.662 87.629 105.92 87.497L106.505 88.523Z" fill="white"/>
</svg>
